<mxfile host="Electron" modified="2023-11-02T07:23:11.824Z" agent="Mozilla/5.0 (Windows NT 10.0; Win64; x64) AppleWebKit/537.36 (KHTML, like Gecko) draw.io/22.0.3 Chrome/114.0.5735.289 Electron/25.8.4 Safari/537.36" etag="U2TlK1O1lgwjgAIXFp-4" version="22.0.3" type="device">
  <diagram name="Page-1" id="9s5kF31Tc7BOIIY955Y2">
    <mxGraphModel dx="1036" dy="606" grid="0" gridSize="10" guides="1" tooltips="1" connect="1" arrows="1" fold="1" page="1" pageScale="1" pageWidth="2336" pageHeight="1654" background="#ffffff" math="0" shadow="1">
      <root>
        <mxCell id="0" />
        <mxCell id="1" parent="0" />
        <mxCell id="g4oVjJQtsdM4NGJoOiEY-1" value="Employee" style="whiteSpace=wrap;html=1;align=center;labelBackgroundColor=none;rounded=0;labelBorderColor=none;fontSize=12;fontStyle=1;fillColor=#E6E6E6;strokeColor=#454545;fontColor=#333333;" parent="1" vertex="1">
          <mxGeometry x="909" y="765" width="100" height="40" as="geometry" />
        </mxCell>
        <mxCell id="g4oVjJQtsdM4NGJoOiEY-3" value="name" style="ellipse;whiteSpace=wrap;html=1;align=center;labelBackgroundColor=none;rounded=0;labelBorderColor=none;fontSize=12;fontStyle=1;fillColor=#E6E6E6;strokeColor=#454545;fontColor=#333333;" parent="1" vertex="1">
          <mxGeometry x="651.5" y="574.5" width="100" height="40" as="geometry" />
        </mxCell>
        <mxCell id="g4oVjJQtsdM4NGJoOiEY-4" value="" style="endArrow=none;html=1;rounded=0;entryX=0.5;entryY=1;entryDx=0;entryDy=0;entryPerimeter=0;labelBackgroundColor=none;fontColor=#333333;exitX=0.43;exitY=0.01;exitDx=0;exitDy=0;exitPerimeter=0;labelBorderColor=none;fontSize=12;fontStyle=1;strokeColor=#454545;fillColor=#E6E6E6;" parent="1" source="g4oVjJQtsdM4NGJoOiEY-1" target="g4oVjJQtsdM4NGJoOiEY-3" edge="1">
          <mxGeometry relative="1" as="geometry">
            <mxPoint x="949" y="759" as="sourcePoint" />
            <mxPoint x="1039" y="779" as="targetPoint" />
          </mxGeometry>
        </mxCell>
        <mxCell id="g4oVjJQtsdM4NGJoOiEY-6" value="Lname" style="ellipse;whiteSpace=wrap;html=1;align=center;labelBackgroundColor=none;rounded=0;labelBorderColor=none;fontSize=12;fontStyle=1;fillColor=#E6E6E6;strokeColor=#454545;fontColor=#333333;" parent="1" vertex="1">
          <mxGeometry x="697.5" y="521.5" width="100" height="40" as="geometry" />
        </mxCell>
        <mxCell id="g4oVjJQtsdM4NGJoOiEY-7" value="Fname" style="ellipse;whiteSpace=wrap;html=1;align=center;labelBackgroundColor=none;rounded=0;labelBorderColor=none;fontSize=12;fontStyle=1;fillColor=#E6E6E6;strokeColor=#454545;fontColor=#333333;" parent="1" vertex="1">
          <mxGeometry x="574.5" y="529.5" width="100" height="40" as="geometry" />
        </mxCell>
        <mxCell id="g4oVjJQtsdM4NGJoOiEY-9" value="" style="endArrow=none;html=1;rounded=0;exitX=1;exitY=1;exitDx=0;exitDy=0;entryX=0.23;entryY=0.1;entryDx=0;entryDy=0;entryPerimeter=0;labelBackgroundColor=none;fontColor=#333333;labelBorderColor=none;fontSize=12;fontStyle=1;strokeColor=#454545;fillColor=#E6E6E6;" parent="1" source="g4oVjJQtsdM4NGJoOiEY-7" target="g4oVjJQtsdM4NGJoOiEY-3" edge="1">
          <mxGeometry relative="1" as="geometry">
            <mxPoint x="708.5" y="793.5" as="sourcePoint" />
            <mxPoint x="868.5" y="793.5" as="targetPoint" />
          </mxGeometry>
        </mxCell>
        <mxCell id="g4oVjJQtsdM4NGJoOiEY-10" value="" style="endArrow=none;html=1;rounded=0;entryX=0.5;entryY=1;entryDx=0;entryDy=0;exitX=0.5;exitY=0;exitDx=0;exitDy=0;labelBackgroundColor=none;fontColor=#333333;labelBorderColor=none;fontSize=12;fontStyle=1;strokeColor=#454545;fillColor=#E6E6E6;" parent="1" source="g4oVjJQtsdM4NGJoOiEY-3" target="g4oVjJQtsdM4NGJoOiEY-6" edge="1">
          <mxGeometry relative="1" as="geometry">
            <mxPoint x="708.5" y="793.5" as="sourcePoint" />
            <mxPoint x="868.5" y="793.5" as="targetPoint" />
          </mxGeometry>
        </mxCell>
        <mxCell id="g4oVjJQtsdM4NGJoOiEY-11" value="SSN" style="ellipse;whiteSpace=wrap;html=1;align=center;fontStyle=5;labelBackgroundColor=none;rounded=0;labelBorderColor=none;fontSize=12;fillColor=#E6E6E6;strokeColor=#454545;fontColor=#333333;" parent="1" vertex="1">
          <mxGeometry x="743" y="609.5" width="100" height="40" as="geometry" />
        </mxCell>
        <mxCell id="g4oVjJQtsdM4NGJoOiEY-12" value="" style="endArrow=none;html=1;rounded=0;entryX=0.5;entryY=1;entryDx=0;entryDy=0;labelBackgroundColor=none;fontColor=#333333;exitX=0.5;exitY=0;exitDx=0;exitDy=0;labelBorderColor=none;fontSize=12;fontStyle=1;strokeColor=#454545;fillColor=#E6E6E6;" parent="1" source="g4oVjJQtsdM4NGJoOiEY-1" target="g4oVjJQtsdM4NGJoOiEY-11" edge="1">
          <mxGeometry relative="1" as="geometry">
            <mxPoint x="963" y="759" as="sourcePoint" />
            <mxPoint x="1039" y="779" as="targetPoint" />
            <Array as="points" />
          </mxGeometry>
        </mxCell>
        <mxCell id="g4oVjJQtsdM4NGJoOiEY-13" value="phone" style="ellipse;whiteSpace=wrap;html=1;align=center;labelBackgroundColor=none;rounded=0;labelBorderColor=none;fontSize=12;fontStyle=1;fillColor=#E6E6E6;strokeColor=#454545;fontColor=#333333;" parent="1" vertex="1">
          <mxGeometry x="782.5" y="569.5" width="100" height="40" as="geometry" />
        </mxCell>
        <mxCell id="g4oVjJQtsdM4NGJoOiEY-14" value="Salary" style="ellipse;whiteSpace=wrap;html=1;align=center;labelBackgroundColor=none;rounded=0;labelBorderColor=none;fontSize=12;fontStyle=1;fillColor=#E6E6E6;strokeColor=#454545;fontColor=#333333;" parent="1" vertex="1">
          <mxGeometry x="551.5" y="604.5" width="100" height="40" as="geometry" />
        </mxCell>
        <mxCell id="g4oVjJQtsdM4NGJoOiEY-15" value="hire_date" style="ellipse;whiteSpace=wrap;html=1;align=center;labelBackgroundColor=none;rounded=0;labelBorderColor=none;fontSize=12;fontStyle=1;fillColor=#E6E6E6;strokeColor=#454545;fontColor=#333333;" parent="1" vertex="1">
          <mxGeometry x="820.5" y="522.5" width="100" height="40" as="geometry" />
        </mxCell>
        <mxCell id="g4oVjJQtsdM4NGJoOiEY-16" value="" style="endArrow=none;html=1;rounded=0;exitX=0.5;exitY=0;exitDx=0;exitDy=0;labelBackgroundColor=none;fontColor=#333333;entryX=1;entryY=1;entryDx=0;entryDy=0;labelBorderColor=none;fontSize=12;fontStyle=1;strokeColor=#454545;fillColor=#E6E6E6;" parent="1" source="g4oVjJQtsdM4NGJoOiEY-1" target="g4oVjJQtsdM4NGJoOiEY-15" edge="1">
          <mxGeometry relative="1" as="geometry">
            <mxPoint x="976" y="758" as="sourcePoint" />
            <mxPoint x="999" y="579" as="targetPoint" />
          </mxGeometry>
        </mxCell>
        <mxCell id="g4oVjJQtsdM4NGJoOiEY-17" value="" style="endArrow=none;html=1;rounded=0;exitX=0.94;exitY=0.775;exitDx=0;exitDy=0;entryX=0.34;entryY=0;entryDx=0;entryDy=0;entryPerimeter=0;exitPerimeter=0;labelBackgroundColor=none;fontColor=#333333;labelBorderColor=none;fontSize=12;fontStyle=1;strokeColor=#454545;fillColor=#E6E6E6;" parent="1" source="g4oVjJQtsdM4NGJoOiEY-14" target="g4oVjJQtsdM4NGJoOiEY-1" edge="1">
          <mxGeometry relative="1" as="geometry">
            <mxPoint x="879" y="779" as="sourcePoint" />
            <mxPoint x="1039" y="779" as="targetPoint" />
          </mxGeometry>
        </mxCell>
        <mxCell id="g4oVjJQtsdM4NGJoOiEY-18" value="" style="endArrow=none;html=1;rounded=0;entryX=0.5;entryY=1;entryDx=0;entryDy=0;labelBackgroundColor=none;fontColor=#333333;exitX=0.5;exitY=0;exitDx=0;exitDy=0;labelBorderColor=none;fontSize=12;fontStyle=1;strokeColor=#454545;fillColor=#E6E6E6;" parent="1" source="g4oVjJQtsdM4NGJoOiEY-1" target="g4oVjJQtsdM4NGJoOiEY-13" edge="1">
          <mxGeometry relative="1" as="geometry">
            <mxPoint x="950" y="774" as="sourcePoint" />
            <mxPoint x="1039" y="779" as="targetPoint" />
          </mxGeometry>
        </mxCell>
        <mxCell id="g4oVjJQtsdM4NGJoOiEY-19" value="Warrantor" style="whiteSpace=wrap;html=1;align=center;labelBackgroundColor=none;rounded=0;labelBorderColor=none;fontSize=12;fontStyle=1;fillColor=#E6E6E6;strokeColor=#454545;fontColor=#333333;" parent="1" vertex="1">
          <mxGeometry x="358.8" y="945" width="100" height="40" as="geometry" />
        </mxCell>
        <mxCell id="g4oVjJQtsdM4NGJoOiEY-20" value="phone" style="ellipse;whiteSpace=wrap;html=1;align=center;labelBackgroundColor=none;rounded=0;labelBorderColor=none;fontSize=12;fontStyle=1;fillColor=#E6E6E6;strokeColor=#454545;fontColor=#333333;" parent="1" vertex="1">
          <mxGeometry x="177" y="913" width="100" height="40" as="geometry" />
        </mxCell>
        <mxCell id="g4oVjJQtsdM4NGJoOiEY-21" value="type of guarantee" style="ellipse;whiteSpace=wrap;html=1;align=center;labelBackgroundColor=none;rounded=0;labelBorderColor=none;fontSize=12;fontStyle=1;fillColor=#E6E6E6;strokeColor=#454545;fontColor=#333333;" parent="1" vertex="1">
          <mxGeometry x="177" y="1011" width="100" height="40" as="geometry" />
        </mxCell>
        <mxCell id="g4oVjJQtsdM4NGJoOiEY-22" value="SSN" style="ellipse;whiteSpace=wrap;html=1;align=center;fontStyle=5;rounded=0;labelBackgroundColor=none;labelBorderColor=none;fontSize=12;fillColor=#E6E6E6;strokeColor=#454545;fontColor=#333333;" parent="1" vertex="1">
          <mxGeometry x="177" y="961" width="100" height="40" as="geometry" />
        </mxCell>
        <mxCell id="g4oVjJQtsdM4NGJoOiEY-24" value="" style="endArrow=none;html=1;rounded=0;exitX=0.984;exitY=0.609;exitDx=0;exitDy=0;exitPerimeter=0;entryX=0;entryY=0.25;entryDx=0;entryDy=0;labelBackgroundColor=none;fontColor=#333333;labelBorderColor=none;fontSize=12;fontStyle=1;strokeColor=#454545;fillColor=#E6E6E6;" parent="1" source="x4arMqCCryayOVoLSVZp-31" target="g4oVjJQtsdM4NGJoOiEY-19" edge="1">
          <mxGeometry relative="1" as="geometry">
            <mxPoint x="275.1" y="892.9599999999999" as="sourcePoint" />
            <mxPoint x="351.8" y="946.4300000000001" as="targetPoint" />
          </mxGeometry>
        </mxCell>
        <mxCell id="g4oVjJQtsdM4NGJoOiEY-25" value="" style="endArrow=none;html=1;rounded=0;labelBackgroundColor=none;fontColor=#333333;exitX=0.981;exitY=0.628;exitDx=0;exitDy=0;exitPerimeter=0;entryX=0;entryY=0.5;entryDx=0;entryDy=0;labelBorderColor=none;fontSize=12;fontStyle=1;strokeColor=#454545;fillColor=#E6E6E6;" parent="1" source="g4oVjJQtsdM4NGJoOiEY-20" target="g4oVjJQtsdM4NGJoOiEY-19" edge="1">
          <mxGeometry relative="1" as="geometry">
            <mxPoint x="234.8" y="886.4300000000001" as="sourcePoint" />
            <mxPoint x="339.8" y="955" as="targetPoint" />
          </mxGeometry>
        </mxCell>
        <mxCell id="g4oVjJQtsdM4NGJoOiEY-26" value="" style="endArrow=none;html=1;rounded=0;entryX=1;entryY=0.5;entryDx=0;entryDy=0;exitX=0;exitY=0.75;exitDx=0;exitDy=0;labelBackgroundColor=none;fontColor=#333333;labelBorderColor=none;fontSize=12;fontStyle=1;strokeColor=#454545;fillColor=#E6E6E6;" parent="1" source="g4oVjJQtsdM4NGJoOiEY-19" target="g4oVjJQtsdM4NGJoOiEY-22" edge="1">
          <mxGeometry relative="1" as="geometry">
            <mxPoint x="351.8" y="966.4300000000001" as="sourcePoint" />
            <mxPoint x="513.8" y="856.4300000000001" as="targetPoint" />
          </mxGeometry>
        </mxCell>
        <mxCell id="g4oVjJQtsdM4NGJoOiEY-27" value="" style="endArrow=none;html=1;rounded=0;entryX=1;entryY=0.5;entryDx=0;entryDy=0;labelBackgroundColor=none;fontColor=#333333;exitX=0;exitY=1;exitDx=0;exitDy=0;labelBorderColor=none;fontSize=12;fontStyle=1;strokeColor=#454545;fillColor=#E6E6E6;" parent="1" source="g4oVjJQtsdM4NGJoOiEY-19" target="g4oVjJQtsdM4NGJoOiEY-21" edge="1">
          <mxGeometry relative="1" as="geometry">
            <mxPoint x="339.8" y="1005" as="sourcePoint" />
            <mxPoint x="513.8" y="856.4300000000001" as="targetPoint" />
          </mxGeometry>
        </mxCell>
        <mxCell id="g4oVjJQtsdM4NGJoOiEY-28" value="Guarantee" style="shape=rhombus;perimeter=rhombusPerimeter;whiteSpace=wrap;html=1;align=center;labelBackgroundColor=none;rounded=0;labelBorderColor=none;fontSize=12;fontStyle=1;fillColor=#E6E6E6;strokeColor=#454545;fontColor=#333333;" parent="1" vertex="1">
          <mxGeometry x="349.99999999999994" y="740.0000000000001" width="120" height="60" as="geometry" />
        </mxCell>
        <mxCell id="g4oVjJQtsdM4NGJoOiEY-29" value="" style="shape=link;rounded=0;exitX=0;exitY=0.25;exitDx=0;exitDy=0;labelBackgroundColor=none;fontColor=#333333;labelBorderColor=none;html=1;entryX=1;entryY=0.5;entryDx=0;entryDy=0;fontSize=12;fontStyle=1;strokeColor=#454545;fillColor=#E6E6E6;" parent="1" source="g4oVjJQtsdM4NGJoOiEY-1" target="g4oVjJQtsdM4NGJoOiEY-28" edge="1">
          <mxGeometry relative="1" as="geometry">
            <mxPoint x="965" y="975" as="sourcePoint" />
            <mxPoint x="995" y="905" as="targetPoint" />
          </mxGeometry>
        </mxCell>
        <mxCell id="g4oVjJQtsdM4NGJoOiEY-30" value="N" style="resizable=0;html=1;whiteSpace=wrap;align=center;verticalAlign=middle;labelBackgroundColor=none;rounded=0;labelBorderColor=none;fontSize=12;fontStyle=1;fillColor=#E6E6E6;strokeColor=#454545;fontColor=#333333;" parent="g4oVjJQtsdM4NGJoOiEY-29" connectable="0" vertex="1">
          <mxGeometry x="1" relative="1" as="geometry">
            <mxPoint y="-10" as="offset" />
          </mxGeometry>
        </mxCell>
        <mxCell id="g4oVjJQtsdM4NGJoOiEY-31" value="" style="shape=link;html=1;rounded=0;labelBackgroundColor=none;fontColor=#333333;exitX=0.5;exitY=0;exitDx=0;exitDy=0;entryX=0.5;entryY=1;entryDx=0;entryDy=0;labelBorderColor=none;fontSize=12;fontStyle=1;strokeColor=#454545;fillColor=#E6E6E6;" parent="1" source="g4oVjJQtsdM4NGJoOiEY-19" target="g4oVjJQtsdM4NGJoOiEY-28" edge="1">
          <mxGeometry relative="1" as="geometry">
            <mxPoint x="1108" y="865" as="sourcePoint" />
            <mxPoint x="1118" y="1115" as="targetPoint" />
          </mxGeometry>
        </mxCell>
        <mxCell id="g4oVjJQtsdM4NGJoOiEY-32" value="1" style="resizable=0;html=1;whiteSpace=wrap;align=center;verticalAlign=middle;labelBackgroundColor=none;rounded=0;labelBorderColor=none;fontSize=12;fontStyle=1;fillColor=#E6E6E6;strokeColor=#454545;fontColor=#333333;" parent="g4oVjJQtsdM4NGJoOiEY-31" connectable="0" vertex="1">
          <mxGeometry x="1" relative="1" as="geometry">
            <mxPoint x="-11" y="7" as="offset" />
          </mxGeometry>
        </mxCell>
        <mxCell id="g4oVjJQtsdM4NGJoOiEY-33" value="Bills" style="whiteSpace=wrap;html=1;align=center;labelBackgroundColor=none;rounded=0;labelBorderColor=none;fontSize=12;fontStyle=1;fillColor=#E6E6E6;strokeColor=#454545;fontColor=#333333;" parent="1" vertex="1">
          <mxGeometry x="357.99999999999994" y="573" width="100" height="30" as="geometry" />
        </mxCell>
        <mxCell id="g4oVjJQtsdM4NGJoOiEY-34" value="id" style="ellipse;whiteSpace=wrap;html=1;align=center;fontStyle=5;labelBackgroundColor=none;rounded=0;labelBorderColor=none;fontSize=12;fillColor=#E6E6E6;strokeColor=#454545;fontColor=#333333;" parent="1" vertex="1">
          <mxGeometry x="239" y="480" width="100" height="40" as="geometry" />
        </mxCell>
        <mxCell id="g4oVjJQtsdM4NGJoOiEY-35" value="date" style="ellipse;whiteSpace=wrap;html=1;align=center;labelBackgroundColor=none;rounded=0;labelBorderColor=none;fontSize=12;fontStyle=1;fillColor=#E6E6E6;strokeColor=#454545;fontColor=#333333;" parent="1" vertex="1">
          <mxGeometry x="453.99999999999994" y="521.5" width="100" height="40" as="geometry" />
        </mxCell>
        <mxCell id="g4oVjJQtsdM4NGJoOiEY-36" value="price" style="ellipse;whiteSpace=wrap;html=1;align=center;labelBackgroundColor=none;rounded=0;labelBorderColor=none;fontSize=12;fontStyle=1;fillColor=#E6E6E6;strokeColor=#454545;fontColor=#333333;" parent="1" vertex="1">
          <mxGeometry x="213.99999999999994" y="590" width="100" height="40" as="geometry" />
        </mxCell>
        <mxCell id="g4oVjJQtsdM4NGJoOiEY-37" value="quantity" style="ellipse;whiteSpace=wrap;html=1;align=center;labelBackgroundColor=none;rounded=0;labelBorderColor=none;fontSize=12;fontStyle=1;fillColor=#E6E6E6;strokeColor=#454545;fontColor=#333333;" parent="1" vertex="1">
          <mxGeometry x="231" y="534.5" width="100" height="40" as="geometry" />
        </mxCell>
        <mxCell id="g4oVjJQtsdM4NGJoOiEY-38" value="Clinet_name" style="ellipse;whiteSpace=wrap;html=1;align=center;labelBackgroundColor=none;rounded=0;labelBorderColor=none;fontSize=12;fontStyle=1;fillColor=#E6E6E6;strokeColor=#454545;fontColor=#333333;" parent="1" vertex="1">
          <mxGeometry x="435.99999999999994" y="448" width="100" height="40" as="geometry" />
        </mxCell>
        <mxCell id="g4oVjJQtsdM4NGJoOiEY-39" value="" style="endArrow=none;html=1;rounded=0;entryX=0;entryY=0;entryDx=0;entryDy=0;exitX=0.922;exitY=0.797;exitDx=0;exitDy=0;labelBackgroundColor=none;fontColor=#333333;exitPerimeter=0;labelBorderColor=none;fontSize=12;fontStyle=1;strokeColor=#454545;fillColor=#E6E6E6;" parent="1" source="g4oVjJQtsdM4NGJoOiEY-34" target="g4oVjJQtsdM4NGJoOiEY-33" edge="1">
          <mxGeometry relative="1" as="geometry">
            <mxPoint x="358.3553390593274" y="503.5721356237311" as="sourcePoint" />
            <mxPoint x="387.99999999999994" y="594.43" as="targetPoint" />
          </mxGeometry>
        </mxCell>
        <mxCell id="g4oVjJQtsdM4NGJoOiEY-40" value="" style="endArrow=none;html=1;rounded=0;exitX=0.683;exitY=0.956;exitDx=0;exitDy=0;labelBackgroundColor=none;fontColor=#333333;entryX=0.455;entryY=0.017;entryDx=0;entryDy=0;entryPerimeter=0;exitPerimeter=0;labelBorderColor=none;fontSize=12;fontStyle=1;strokeColor=#454545;fillColor=#E6E6E6;" parent="1" source="g4oVjJQtsdM4NGJoOiEY-38" target="g4oVjJQtsdM4NGJoOiEY-33" edge="1">
          <mxGeometry relative="1" as="geometry">
            <mxPoint x="376.99999999999994" y="655" as="sourcePoint" />
            <mxPoint x="397.99999999999994" y="591" as="targetPoint" />
          </mxGeometry>
        </mxCell>
        <mxCell id="g4oVjJQtsdM4NGJoOiEY-41" value="" style="endArrow=none;html=1;rounded=0;entryX=0;entryY=0.25;entryDx=0;entryDy=0;exitX=1;exitY=0.5;exitDx=0;exitDy=0;labelBackgroundColor=none;fontColor=#333333;labelBorderColor=none;fontSize=12;fontStyle=1;strokeColor=#454545;fillColor=#E6E6E6;" parent="1" source="g4oVjJQtsdM4NGJoOiEY-37" target="g4oVjJQtsdM4NGJoOiEY-33" edge="1">
          <mxGeometry relative="1" as="geometry">
            <mxPoint x="376.99999999999994" y="655" as="sourcePoint" />
            <mxPoint x="537" y="655" as="targetPoint" />
          </mxGeometry>
        </mxCell>
        <mxCell id="g4oVjJQtsdM4NGJoOiEY-42" value="" style="endArrow=none;html=1;rounded=0;exitX=1;exitY=0.5;exitDx=0;exitDy=0;entryX=0;entryY=0.75;entryDx=0;entryDy=0;labelBackgroundColor=none;fontColor=#333333;labelBorderColor=none;fontSize=12;fontStyle=1;strokeColor=#454545;fillColor=#E6E6E6;" parent="1" source="g4oVjJQtsdM4NGJoOiEY-36" target="g4oVjJQtsdM4NGJoOiEY-33" edge="1">
          <mxGeometry relative="1" as="geometry">
            <mxPoint x="376.99999999999994" y="655" as="sourcePoint" />
            <mxPoint x="537" y="655" as="targetPoint" />
          </mxGeometry>
        </mxCell>
        <mxCell id="g4oVjJQtsdM4NGJoOiEY-43" value="" style="endArrow=none;html=1;rounded=0;entryX=0;entryY=1;entryDx=0;entryDy=0;labelBackgroundColor=none;fontColor=#333333;labelBorderColor=none;fontSize=12;fontStyle=1;strokeColor=#454545;fillColor=#E6E6E6;" parent="1" source="g4oVjJQtsdM4NGJoOiEY-33" target="g4oVjJQtsdM4NGJoOiEY-35" edge="1">
          <mxGeometry relative="1" as="geometry">
            <mxPoint x="376.99999999999994" y="655" as="sourcePoint" />
            <mxPoint x="457.9999999999997" y="492" as="targetPoint" />
          </mxGeometry>
        </mxCell>
        <mxCell id="g4oVjJQtsdM4NGJoOiEY-44" value="Issues" style="shape=rhombus;perimeter=rhombusPerimeter;whiteSpace=wrap;html=1;align=center;labelBackgroundColor=none;rounded=0;labelBorderColor=none;fontSize=12;fontStyle=1;fillColor=#E6E6E6;strokeColor=#454545;fontColor=#333333;" parent="1" vertex="1">
          <mxGeometry x="346.99999999999994" y="664" width="120" height="60" as="geometry" />
        </mxCell>
        <mxCell id="g4oVjJQtsdM4NGJoOiEY-45" value="Lname" style="ellipse;whiteSpace=wrap;html=1;align=center;labelBackgroundColor=none;rounded=0;labelBorderColor=none;fontSize=12;fontStyle=1;fillColor=#E6E6E6;strokeColor=#454545;fontColor=#333333;" parent="1" vertex="1">
          <mxGeometry x="351" y="489.5" width="100" height="40" as="geometry" />
        </mxCell>
        <mxCell id="g4oVjJQtsdM4NGJoOiEY-46" value="Fname" style="ellipse;whiteSpace=wrap;html=1;align=center;labelBackgroundColor=none;rounded=0;labelBorderColor=none;fontSize=12;fontStyle=1;fillColor=#E6E6E6;strokeColor=#454545;fontColor=#333333;" parent="1" vertex="1">
          <mxGeometry x="324" y="424" width="100" height="40" as="geometry" />
        </mxCell>
        <mxCell id="g4oVjJQtsdM4NGJoOiEY-47" value="" style="endArrow=none;html=1;rounded=0;exitX=0.019;exitY=0.357;exitDx=0;exitDy=0;labelBackgroundColor=none;fontColor=#333333;exitPerimeter=0;labelBorderColor=none;fontSize=12;fontStyle=1;strokeColor=#454545;fillColor=#E6E6E6;entryX=0.835;entryY=0.864;entryDx=0;entryDy=0;entryPerimeter=0;" parent="1" source="g4oVjJQtsdM4NGJoOiEY-38" target="g4oVjJQtsdM4NGJoOiEY-46" edge="1">
          <mxGeometry relative="1" as="geometry">
            <mxPoint x="439.99999999999994" y="307" as="sourcePoint" />
            <mxPoint x="407" y="459" as="targetPoint" />
          </mxGeometry>
        </mxCell>
        <mxCell id="g4oVjJQtsdM4NGJoOiEY-48" value="" style="endArrow=none;html=1;rounded=0;exitX=0.5;exitY=0;exitDx=0;exitDy=0;entryX=0.07;entryY=0.752;entryDx=0;entryDy=0;labelBackgroundColor=none;fontColor=#333333;entryPerimeter=0;labelBorderColor=none;fontSize=12;fontStyle=1;strokeColor=#454545;fillColor=#E6E6E6;" parent="1" source="g4oVjJQtsdM4NGJoOiEY-45" target="g4oVjJQtsdM4NGJoOiEY-38" edge="1">
          <mxGeometry relative="1" as="geometry">
            <mxPoint x="469.99999999999994" y="495" as="sourcePoint" />
            <mxPoint x="630" y="495" as="targetPoint" />
          </mxGeometry>
        </mxCell>
        <mxCell id="g4oVjJQtsdM4NGJoOiEY-49" value="" style="shape=link;html=1;rounded=0;fontColor=#333333;exitX=0.5;exitY=1;exitDx=0;exitDy=0;entryX=0.5;entryY=0;entryDx=0;entryDy=0;labelBackgroundColor=none;labelBorderColor=none;fontSize=12;fontStyle=1;strokeColor=#454545;fillColor=#E6E6E6;" parent="1" source="g4oVjJQtsdM4NGJoOiEY-33" target="g4oVjJQtsdM4NGJoOiEY-44" edge="1">
          <mxGeometry relative="1" as="geometry">
            <mxPoint x="594.8" y="791" as="sourcePoint" />
            <mxPoint x="754.8" y="791" as="targetPoint" />
          </mxGeometry>
        </mxCell>
        <mxCell id="g4oVjJQtsdM4NGJoOiEY-50" value="N" style="resizable=0;html=1;whiteSpace=wrap;align=center;verticalAlign=middle;labelBackgroundColor=none;rounded=0;labelBorderColor=none;fontSize=12;fontStyle=1;fillColor=#E6E6E6;strokeColor=#454545;fontColor=#333333;" parent="g4oVjJQtsdM4NGJoOiEY-49" connectable="0" vertex="1">
          <mxGeometry x="1" relative="1" as="geometry">
            <mxPoint x="10" y="-7" as="offset" />
          </mxGeometry>
        </mxCell>
        <mxCell id="g4oVjJQtsdM4NGJoOiEY-51" value="" style="endArrow=none;html=1;rounded=0;fontColor=#333333;entryX=0;entryY=0.5;entryDx=0;entryDy=0;labelBackgroundColor=none;labelBorderColor=none;fontSize=12;fontStyle=1;strokeColor=#454545;fillColor=#E6E6E6;exitX=0;exitY=0.25;exitDx=0;exitDy=0;" parent="1" source="g4oVjJQtsdM4NGJoOiEY-80" target="g4oVjJQtsdM4NGJoOiEY-44" edge="1">
          <mxGeometry relative="1" as="geometry">
            <mxPoint x="843" y="969" as="sourcePoint" />
            <mxPoint x="347.0000000000002" y="695" as="targetPoint" />
            <Array as="points">
              <mxPoint x="879" y="1073" />
              <mxPoint x="873" y="878" />
              <mxPoint x="472" y="874" />
              <mxPoint x="469" y="1252" />
              <mxPoint x="125" y="1252" />
              <mxPoint x="125" y="695" />
            </Array>
          </mxGeometry>
        </mxCell>
        <mxCell id="g4oVjJQtsdM4NGJoOiEY-52" value="1" style="resizable=0;html=1;whiteSpace=wrap;align=center;verticalAlign=middle;labelBackgroundColor=none;rounded=0;labelBorderColor=none;fontSize=12;fontStyle=1;fillColor=#E6E6E6;strokeColor=#454545;fontColor=#333333;" parent="g4oVjJQtsdM4NGJoOiEY-51" connectable="0" vertex="1">
          <mxGeometry x="1" relative="1" as="geometry">
            <mxPoint x="-1" y="-10" as="offset" />
          </mxGeometry>
        </mxCell>
        <mxCell id="g4oVjJQtsdM4NGJoOiEY-53" value="Truck" style="whiteSpace=wrap;html=1;align=center;labelBackgroundColor=none;rounded=0;labelBorderColor=none;fontSize=12;fontStyle=1;fillColor=#E6E6E6;strokeColor=#454545;fontColor=#333333;" parent="1" vertex="1">
          <mxGeometry x="1277" y="770" width="100" height="40" as="geometry" />
        </mxCell>
        <mxCell id="g4oVjJQtsdM4NGJoOiEY-55" value="license plate" style="ellipse;whiteSpace=wrap;html=1;align=center;fontStyle=5;labelBackgroundColor=none;rounded=0;labelBorderColor=none;fontSize=12;fillColor=#E6E6E6;strokeColor=#454545;fontColor=#333333;" parent="1" vertex="1">
          <mxGeometry x="1208" y="673" width="100" height="40" as="geometry" />
        </mxCell>
        <mxCell id="g4oVjJQtsdM4NGJoOiEY-56" value="driver license" style="ellipse;whiteSpace=wrap;html=1;align=center;labelBackgroundColor=none;rounded=0;labelBorderColor=none;fontSize=12;fontStyle=1;fillColor=#E6E6E6;strokeColor=#454545;fontColor=#333333;" parent="1" vertex="1">
          <mxGeometry x="1319" y="644.5" width="100" height="40" as="geometry" />
        </mxCell>
        <mxCell id="g4oVjJQtsdM4NGJoOiEY-58" value="" style="endArrow=none;html=1;rounded=0;entryX=1;entryY=1;entryDx=0;entryDy=0;exitX=0.25;exitY=0;exitDx=0;exitDy=0;labelBackgroundColor=none;fontColor=#333333;labelBorderColor=none;fontSize=12;fontStyle=1;strokeColor=#454545;fillColor=#E6E6E6;" parent="1" source="g4oVjJQtsdM4NGJoOiEY-53" target="g4oVjJQtsdM4NGJoOiEY-55" edge="1">
          <mxGeometry relative="1" as="geometry">
            <mxPoint x="1312" y="794" as="sourcePoint" />
            <mxPoint x="1472" y="794" as="targetPoint" />
          </mxGeometry>
        </mxCell>
        <mxCell id="g4oVjJQtsdM4NGJoOiEY-59" value="" style="endArrow=none;html=1;rounded=0;entryX=0.23;entryY=0.887;entryDx=0;entryDy=0;exitX=0.582;exitY=-0.016;exitDx=0;exitDy=0;exitPerimeter=0;entryPerimeter=0;labelBackgroundColor=none;fontColor=#333333;labelBorderColor=none;fontSize=12;fontStyle=1;strokeColor=#454545;fillColor=#E6E6E6;" parent="1" source="g4oVjJQtsdM4NGJoOiEY-53" target="g4oVjJQtsdM4NGJoOiEY-56" edge="1">
          <mxGeometry relative="1" as="geometry">
            <mxPoint x="1312" y="794" as="sourcePoint" />
            <mxPoint x="1472" y="794" as="targetPoint" />
          </mxGeometry>
        </mxCell>
        <mxCell id="g4oVjJQtsdM4NGJoOiEY-60" value="Work on" style="shape=rhombus;perimeter=rhombusPerimeter;whiteSpace=wrap;html=1;align=center;labelBackgroundColor=none;rounded=0;labelBorderColor=none;fontSize=12;fontStyle=1;fillColor=#E6E6E6;strokeColor=#454545;fontColor=#333333;" parent="1" vertex="1">
          <mxGeometry x="1124" y="760" width="120" height="60" as="geometry" />
        </mxCell>
        <mxCell id="g4oVjJQtsdM4NGJoOiEY-61" value="" style="shape=link;html=1;rounded=0;entryX=1;entryY=0.5;entryDx=0;entryDy=0;labelBackgroundColor=none;fontColor=#333333;exitX=0;exitY=0.5;exitDx=0;exitDy=0;labelBorderColor=none;fontSize=12;fontStyle=1;strokeColor=#454545;fillColor=#E6E6E6;" parent="1" source="g4oVjJQtsdM4NGJoOiEY-53" target="g4oVjJQtsdM4NGJoOiEY-60" edge="1">
          <mxGeometry relative="1" as="geometry">
            <mxPoint x="1310" y="829" as="sourcePoint" />
            <mxPoint x="1306" y="838" as="targetPoint" />
            <Array as="points" />
          </mxGeometry>
        </mxCell>
        <mxCell id="g4oVjJQtsdM4NGJoOiEY-62" value="1" style="resizable=0;html=1;whiteSpace=wrap;align=center;verticalAlign=middle;labelBackgroundColor=none;rounded=0;labelBorderColor=none;fontSize=12;fontStyle=1;fillColor=#E6E6E6;strokeColor=#454545;fontColor=#333333;" parent="g4oVjJQtsdM4NGJoOiEY-61" connectable="0" vertex="1">
          <mxGeometry x="1" relative="1" as="geometry">
            <mxPoint y="-11" as="offset" />
          </mxGeometry>
        </mxCell>
        <mxCell id="g4oVjJQtsdM4NGJoOiEY-63" value="" style="endArrow=none;html=1;rounded=0;entryX=0;entryY=0.5;entryDx=0;entryDy=0;exitX=0.993;exitY=0.625;exitDx=0;exitDy=0;labelBackgroundColor=none;fontColor=#333333;labelBorderColor=none;fontSize=12;fontStyle=1;strokeColor=#454545;fillColor=#E6E6E6;exitPerimeter=0;" parent="1" source="g4oVjJQtsdM4NGJoOiEY-1" target="g4oVjJQtsdM4NGJoOiEY-60" edge="1">
          <mxGeometry relative="1" as="geometry">
            <mxPoint x="1146" y="823" as="sourcePoint" />
            <mxPoint x="1306" y="823" as="targetPoint" />
            <Array as="points" />
          </mxGeometry>
        </mxCell>
        <mxCell id="g4oVjJQtsdM4NGJoOiEY-64" value="1" style="resizable=0;html=1;whiteSpace=wrap;align=center;verticalAlign=middle;labelBackgroundColor=none;rounded=0;labelBorderColor=none;fontSize=12;fontStyle=1;fillColor=#E6E6E6;strokeColor=#454545;fontColor=#333333;" parent="g4oVjJQtsdM4NGJoOiEY-63" connectable="0" vertex="1">
          <mxGeometry x="1" relative="1" as="geometry">
            <mxPoint y="-10" as="offset" />
          </mxGeometry>
        </mxCell>
        <mxCell id="g4oVjJQtsdM4NGJoOiEY-65" value="Tank" style="whiteSpace=wrap;html=1;align=center;labelBackgroundColor=none;rounded=0;labelBorderColor=none;fontSize=12;fontStyle=1;fillColor=#E6E6E6;strokeColor=#454545;fontColor=#333333;" parent="1" vertex="1">
          <mxGeometry x="1276" y="1061" width="100" height="40" as="geometry" />
        </mxCell>
        <mxCell id="g4oVjJQtsdM4NGJoOiEY-68" value="gas-type" style="ellipse;whiteSpace=wrap;html=1;align=center;fontStyle=5;labelBackgroundColor=none;rounded=0;labelBorderColor=none;fontSize=12;fillColor=#E6E6E6;strokeColor=#454545;fontColor=#333333;" parent="1" vertex="1">
          <mxGeometry x="1289" y="1166" width="100" height="40" as="geometry" />
        </mxCell>
        <mxCell id="g4oVjJQtsdM4NGJoOiEY-70" value="capacity" style="ellipse;whiteSpace=wrap;html=1;align=center;labelBackgroundColor=none;rounded=0;labelBorderColor=none;fontSize=12;fontStyle=1;fillColor=#E6E6E6;strokeColor=#454545;fontColor=#333333;" parent="1" vertex="1">
          <mxGeometry x="1231" y="1204" width="100" height="40" as="geometry" />
        </mxCell>
        <mxCell id="g4oVjJQtsdM4NGJoOiEY-73" value="" style="endArrow=none;html=1;rounded=0;exitX=0.307;exitY=0.05;exitDx=0;exitDy=0;entryX=0.25;entryY=1;entryDx=0;entryDy=0;labelBackgroundColor=none;fontColor=#333333;labelBorderColor=none;fontSize=12;fontStyle=1;strokeColor=#454545;fillColor=#E6E6E6;exitPerimeter=0;" parent="1" source="g4oVjJQtsdM4NGJoOiEY-70" target="g4oVjJQtsdM4NGJoOiEY-65" edge="1">
          <mxGeometry relative="1" as="geometry">
            <mxPoint x="1186" y="1179" as="sourcePoint" />
            <mxPoint x="1346" y="1179" as="targetPoint" />
          </mxGeometry>
        </mxCell>
        <mxCell id="g4oVjJQtsdM4NGJoOiEY-74" value="" style="endArrow=none;html=1;rounded=0;entryX=0.5;entryY=1;entryDx=0;entryDy=0;labelBackgroundColor=none;fontColor=#333333;labelBorderColor=none;fontSize=12;fontStyle=1;strokeColor=#454545;fillColor=#E6E6E6;exitX=0.397;exitY=0.012;exitDx=0;exitDy=0;exitPerimeter=0;" parent="1" source="g4oVjJQtsdM4NGJoOiEY-68" target="g4oVjJQtsdM4NGJoOiEY-65" edge="1">
          <mxGeometry relative="1" as="geometry">
            <mxPoint x="1357" y="1228" as="sourcePoint" />
            <mxPoint x="1346" y="1179" as="targetPoint" />
          </mxGeometry>
        </mxCell>
        <mxCell id="g4oVjJQtsdM4NGJoOiEY-75" value="Supervise" style="shape=rhombus;perimeter=rhombusPerimeter;whiteSpace=wrap;html=1;align=center;labelBackgroundColor=none;rounded=0;labelBorderColor=none;fontSize=12;fontStyle=1;fillColor=#E6E6E6;strokeColor=#454545;fontColor=#333333;" parent="1" vertex="1">
          <mxGeometry x="1076" y="921" width="120" height="60" as="geometry" />
        </mxCell>
        <mxCell id="g4oVjJQtsdM4NGJoOiEY-76" value="" style="shape=link;html=1;rounded=0;entryX=1;entryY=0.5;entryDx=0;entryDy=0;labelBackgroundColor=none;fontColor=#333333;labelBorderColor=none;fontSize=12;fontStyle=1;strokeColor=#454545;fillColor=#E6E6E6;exitX=0.109;exitY=-0.013;exitDx=0;exitDy=0;exitPerimeter=0;" parent="1" source="g4oVjJQtsdM4NGJoOiEY-65" target="g4oVjJQtsdM4NGJoOiEY-75" edge="1">
          <mxGeometry relative="1" as="geometry">
            <mxPoint x="1287" y="1058" as="sourcePoint" />
            <mxPoint x="1346" y="882.9999999999998" as="targetPoint" />
            <Array as="points">
              <mxPoint x="1287" y="952" />
            </Array>
          </mxGeometry>
        </mxCell>
        <mxCell id="g4oVjJQtsdM4NGJoOiEY-77" value="1" style="resizable=0;html=1;whiteSpace=wrap;align=center;verticalAlign=middle;labelBackgroundColor=none;rounded=0;labelBorderColor=none;fontSize=12;fontStyle=1;fillColor=#E6E6E6;strokeColor=#454545;fontColor=#333333;" parent="g4oVjJQtsdM4NGJoOiEY-76" connectable="0" vertex="1">
          <mxGeometry x="1" relative="1" as="geometry">
            <mxPoint y="12" as="offset" />
          </mxGeometry>
        </mxCell>
        <mxCell id="g4oVjJQtsdM4NGJoOiEY-78" value="" style="endArrow=none;html=1;rounded=0;exitX=1.007;exitY=0.875;exitDx=0;exitDy=0;entryX=0;entryY=0.5;entryDx=0;entryDy=0;exitPerimeter=0;labelBackgroundColor=none;fontColor=#333333;labelBorderColor=none;fontSize=12;fontStyle=1;strokeColor=#454545;fillColor=#E6E6E6;" parent="1" source="g4oVjJQtsdM4NGJoOiEY-1" target="g4oVjJQtsdM4NGJoOiEY-75" edge="1">
          <mxGeometry relative="1" as="geometry">
            <mxPoint x="1116" y="923" as="sourcePoint" />
            <mxPoint x="1276" y="923" as="targetPoint" />
            <Array as="points">
              <mxPoint x="1076" y="800" />
            </Array>
          </mxGeometry>
        </mxCell>
        <mxCell id="g4oVjJQtsdM4NGJoOiEY-79" value="1" style="resizable=0;html=1;whiteSpace=wrap;align=center;verticalAlign=middle;labelBackgroundColor=none;rounded=0;labelBorderColor=none;fontSize=12;fontStyle=1;fillColor=#E6E6E6;strokeColor=#454545;fontColor=#333333;" parent="g4oVjJQtsdM4NGJoOiEY-78" connectable="0" vertex="1">
          <mxGeometry x="1" relative="1" as="geometry">
            <mxPoint y="12" as="offset" />
          </mxGeometry>
        </mxCell>
        <mxCell id="g4oVjJQtsdM4NGJoOiEY-80" value="Counter" style="whiteSpace=wrap;html=1;align=center;labelBackgroundColor=none;rounded=0;labelBorderColor=none;fontSize=12;fontStyle=1;fillColor=#E6E6E6;strokeColor=#454545;fontColor=#333333;" parent="1" vertex="1">
          <mxGeometry x="909.25" y="1063" width="100" height="40" as="geometry" />
        </mxCell>
        <mxCell id="g4oVjJQtsdM4NGJoOiEY-81" value="Counter_id" style="ellipse;whiteSpace=wrap;html=1;align=center;fontStyle=5;labelBackgroundColor=none;rounded=0;labelBorderColor=none;fontSize=12;fillColor=#E6E6E6;strokeColor=#454545;fontColor=#333333;" parent="1" vertex="1">
          <mxGeometry x="861" y="1193" width="100" height="40" as="geometry" />
        </mxCell>
        <mxCell id="g4oVjJQtsdM4NGJoOiEY-82" value="MNF" style="ellipse;whiteSpace=wrap;html=1;align=center;labelBackgroundColor=none;rounded=0;labelBorderColor=none;fontSize=12;fontStyle=1;fillColor=#E6E6E6;strokeColor=#454545;fontColor=#333333;" parent="1" vertex="1">
          <mxGeometry x="938.75" y="1155" width="100" height="40" as="geometry" />
        </mxCell>
        <mxCell id="g4oVjJQtsdM4NGJoOiEY-85" value="" style="endArrow=none;html=1;rounded=0;exitX=0.613;exitY=0.006;exitDx=0;exitDy=0;exitPerimeter=0;entryX=0.25;entryY=1;entryDx=0;entryDy=0;labelBackgroundColor=none;fontColor=#333333;labelBorderColor=none;fontSize=12;fontStyle=1;strokeColor=#454545;fillColor=#E6E6E6;" parent="1" source="g4oVjJQtsdM4NGJoOiEY-81" target="g4oVjJQtsdM4NGJoOiEY-80" edge="1">
          <mxGeometry relative="1" as="geometry">
            <mxPoint x="894.25" y="1002" as="sourcePoint" />
            <mxPoint x="1054.25" y="1002" as="targetPoint" />
          </mxGeometry>
        </mxCell>
        <mxCell id="g4oVjJQtsdM4NGJoOiEY-88" value="Generate" style="shape=rhombus;perimeter=rhombusPerimeter;whiteSpace=wrap;html=1;align=center;labelBackgroundColor=none;rounded=0;labelBorderColor=none;fontSize=12;fontStyle=1;fillColor=#E6E6E6;strokeColor=#454545;fontColor=#333333;" parent="1" vertex="1">
          <mxGeometry x="1078" y="1053" width="120" height="60" as="geometry" />
        </mxCell>
        <mxCell id="g4oVjJQtsdM4NGJoOiEY-89" value="" style="shape=link;html=1;rounded=0;entryX=0;entryY=0.5;entryDx=0;entryDy=0;exitX=1;exitY=0.5;exitDx=0;exitDy=0;labelBackgroundColor=none;fontColor=#333333;labelBorderColor=none;fontSize=12;fontStyle=1;strokeColor=#454545;fillColor=#E6E6E6;" parent="1" source="g4oVjJQtsdM4NGJoOiEY-80" target="g4oVjJQtsdM4NGJoOiEY-88" edge="1">
          <mxGeometry relative="1" as="geometry">
            <mxPoint x="1096" y="963" as="sourcePoint" />
            <mxPoint x="1256" y="963" as="targetPoint" />
            <Array as="points" />
          </mxGeometry>
        </mxCell>
        <mxCell id="g4oVjJQtsdM4NGJoOiEY-90" value="N" style="resizable=0;html=1;whiteSpace=wrap;align=center;verticalAlign=middle;labelBackgroundColor=none;rounded=0;labelBorderColor=none;fontSize=12;fontStyle=1;fillColor=#E6E6E6;strokeColor=#454545;fontColor=#333333;" parent="g4oVjJQtsdM4NGJoOiEY-89" connectable="0" vertex="1">
          <mxGeometry x="1" relative="1" as="geometry">
            <mxPoint y="-12" as="offset" />
          </mxGeometry>
        </mxCell>
        <mxCell id="g4oVjJQtsdM4NGJoOiEY-91" value="" style="shape=link;html=1;rounded=0;entryX=1;entryY=0.5;entryDx=0;entryDy=0;exitX=0;exitY=0.5;exitDx=0;exitDy=0;labelBackgroundColor=none;fontColor=#333333;labelBorderColor=none;fontSize=12;fontStyle=1;strokeColor=#454545;fillColor=#E6E6E6;" parent="1" source="g4oVjJQtsdM4NGJoOiEY-65" target="g4oVjJQtsdM4NGJoOiEY-88" edge="1">
          <mxGeometry relative="1" as="geometry">
            <mxPoint x="1163" y="963" as="sourcePoint" />
            <mxPoint x="1226" y="1029" as="targetPoint" />
            <Array as="points" />
          </mxGeometry>
        </mxCell>
        <mxCell id="g4oVjJQtsdM4NGJoOiEY-92" value="1" style="resizable=0;html=1;whiteSpace=wrap;align=center;verticalAlign=middle;labelBackgroundColor=none;rounded=0;labelBorderColor=none;fontSize=12;fontStyle=1;fillColor=#E6E6E6;strokeColor=#454545;fontColor=#333333;" parent="g4oVjJQtsdM4NGJoOiEY-91" connectable="0" vertex="1">
          <mxGeometry x="1" relative="1" as="geometry">
            <mxPoint y="-12" as="offset" />
          </mxGeometry>
        </mxCell>
        <mxCell id="g4oVjJQtsdM4NGJoOiEY-93" value="Work on" style="shape=rhombus;perimeter=rhombusPerimeter;whiteSpace=wrap;html=1;align=center;labelBackgroundColor=none;rounded=0;labelBorderColor=none;fontSize=12;fontStyle=1;fillColor=#E6E6E6;strokeColor=#454545;fontColor=#333333;" parent="1" vertex="1">
          <mxGeometry x="899" y="923" width="120" height="60" as="geometry" />
        </mxCell>
        <mxCell id="g4oVjJQtsdM4NGJoOiEY-103" value="Supplier" style="whiteSpace=wrap;html=1;align=center;labelBackgroundColor=none;rounded=0;labelBorderColor=none;fontSize=12;fontStyle=1;fillColor=#E6E6E6;strokeColor=#454545;fontColor=#333333;" parent="1" vertex="1">
          <mxGeometry x="1419" y="877" width="100" height="40" as="geometry" />
        </mxCell>
        <mxCell id="g4oVjJQtsdM4NGJoOiEY-104" value="vapour %" style="ellipse;whiteSpace=wrap;html=1;align=center;dashed=1;labelBackgroundColor=none;rounded=0;labelBorderColor=none;fontSize=12;fontStyle=1;fillColor=#E6E6E6;strokeColor=#454545;fontColor=#333333;" parent="1" vertex="1">
          <mxGeometry x="1365" y="1204" width="93" height="39" as="geometry" />
        </mxCell>
        <mxCell id="g4oVjJQtsdM4NGJoOiEY-105" value="" style="endArrow=none;html=1;rounded=0;exitX=0.851;exitY=0.983;exitDx=0;exitDy=0;exitPerimeter=0;entryX=0.5;entryY=0;entryDx=0;entryDy=0;labelBackgroundColor=none;fontColor=#333333;labelBorderColor=none;fontSize=12;fontStyle=1;strokeColor=#454545;fillColor=#E6E6E6;" parent="1" source="g4oVjJQtsdM4NGJoOiEY-65" target="g4oVjJQtsdM4NGJoOiEY-104" edge="1">
          <mxGeometry relative="1" as="geometry">
            <mxPoint x="1476" y="991" as="sourcePoint" />
            <mxPoint x="1636" y="991" as="targetPoint" />
          </mxGeometry>
        </mxCell>
        <mxCell id="g4oVjJQtsdM4NGJoOiEY-106" value="TSupply" style="shape=rhombus;perimeter=rhombusPerimeter;whiteSpace=wrap;html=1;align=center;labelBackgroundColor=none;rounded=0;labelBorderColor=none;fontSize=12;fontStyle=1;fillColor=#E6E6E6;strokeColor=#454545;fontColor=#333333;" parent="1" vertex="1">
          <mxGeometry x="1286" y="868" width="82" height="60" as="geometry" />
        </mxCell>
        <mxCell id="g4oVjJQtsdM4NGJoOiEY-121" value="Provider_name" style="ellipse;whiteSpace=wrap;html=1;align=center;fontStyle=5;labelBackgroundColor=none;rounded=0;labelBorderColor=none;fontSize=12;fillColor=#E6E6E6;strokeColor=#454545;fontColor=#333333;" parent="1" vertex="1">
          <mxGeometry x="1539" y="839" width="100" height="40" as="geometry" />
        </mxCell>
        <mxCell id="g4oVjJQtsdM4NGJoOiEY-122" value="destination" style="ellipse;shape=doubleEllipse;margin=3;whiteSpace=wrap;html=1;align=center;rounded=0;labelBackgroundColor=none;labelBorderColor=none;fontSize=12;fontStyle=1;fillColor=#E6E6E6;strokeColor=#454545;fontColor=#333333;" parent="1" vertex="1">
          <mxGeometry x="1384" y="926" width="100" height="40" as="geometry" />
        </mxCell>
        <mxCell id="g4oVjJQtsdM4NGJoOiEY-123" value="quantity" style="ellipse;whiteSpace=wrap;html=1;align=center;labelBackgroundColor=none;rounded=0;labelBorderColor=none;fontSize=12;fontStyle=1;fillColor=#E6E6E6;strokeColor=#454545;fontColor=#333333;" parent="1" vertex="1">
          <mxGeometry x="1389" y="824" width="100" height="40" as="geometry" />
        </mxCell>
        <mxCell id="g4oVjJQtsdM4NGJoOiEY-124" value="price_per_liter" style="ellipse;whiteSpace=wrap;html=1;align=center;labelBackgroundColor=none;rounded=0;labelBorderColor=none;fontSize=12;fontStyle=1;fillColor=#E6E6E6;strokeColor=#454545;fontColor=#333333;" parent="1" vertex="1">
          <mxGeometry x="1524" y="931" width="100" height="40" as="geometry" />
        </mxCell>
        <mxCell id="g4oVjJQtsdM4NGJoOiEY-126" value="" style="endArrow=none;html=1;rounded=0;entryX=0;entryY=0.5;entryDx=0;entryDy=0;exitX=1;exitY=0.5;exitDx=0;exitDy=0;labelBackgroundColor=none;fontColor=#333333;labelBorderColor=none;fontSize=12;fontStyle=1;strokeColor=#454545;fillColor=#E6E6E6;" parent="1" source="g4oVjJQtsdM4NGJoOiEY-103" target="g4oVjJQtsdM4NGJoOiEY-121" edge="1">
          <mxGeometry relative="1" as="geometry">
            <mxPoint x="1682" y="861" as="sourcePoint" />
            <mxPoint x="1842" y="861" as="targetPoint" />
          </mxGeometry>
        </mxCell>
        <mxCell id="g4oVjJQtsdM4NGJoOiEY-127" value="" style="endArrow=none;html=1;rounded=0;entryX=0;entryY=0.5;entryDx=0;entryDy=0;exitX=0.854;exitY=0.65;exitDx=0;exitDy=0;labelBackgroundColor=none;fontColor=#333333;labelBorderColor=none;fontSize=12;fontStyle=1;strokeColor=#454545;fillColor=#E6E6E6;exitPerimeter=0;" parent="1" source="g4oVjJQtsdM4NGJoOiEY-106" target="g4oVjJQtsdM4NGJoOiEY-122" edge="1">
          <mxGeometry relative="1" as="geometry">
            <mxPoint x="1799" y="923" as="sourcePoint" />
            <mxPoint x="1879" y="929" as="targetPoint" />
          </mxGeometry>
        </mxCell>
        <mxCell id="g4oVjJQtsdM4NGJoOiEY-128" value="" style="endArrow=none;html=1;rounded=0;entryX=0;entryY=0.5;entryDx=0;entryDy=0;labelBackgroundColor=none;fontColor=#333333;labelBorderColor=none;fontSize=12;fontStyle=1;strokeColor=#454545;fillColor=#E6E6E6;exitX=0.854;exitY=0.338;exitDx=0;exitDy=0;exitPerimeter=0;" parent="1" source="g4oVjJQtsdM4NGJoOiEY-106" target="g4oVjJQtsdM4NGJoOiEY-123" edge="1">
          <mxGeometry relative="1" as="geometry">
            <mxPoint x="1357" y="866" as="sourcePoint" />
            <mxPoint x="1829" y="861" as="targetPoint" />
          </mxGeometry>
        </mxCell>
        <mxCell id="g4oVjJQtsdM4NGJoOiEY-129" value="" style="endArrow=none;html=1;rounded=0;exitX=1;exitY=0.75;exitDx=0;exitDy=0;labelBackgroundColor=none;fontColor=#333333;labelBorderColor=none;fontSize=12;fontStyle=1;strokeColor=#454545;fillColor=#E6E6E6;" parent="1" source="g4oVjJQtsdM4NGJoOiEY-103" target="g4oVjJQtsdM4NGJoOiEY-124" edge="1">
          <mxGeometry relative="1" as="geometry">
            <mxPoint x="1799" y="933" as="sourcePoint" />
            <mxPoint x="1829" y="861" as="targetPoint" />
          </mxGeometry>
        </mxCell>
        <mxCell id="g4oVjJQtsdM4NGJoOiEY-130" value="Foreign_provider" style="whiteSpace=wrap;html=1;align=center;labelBackgroundColor=none;rounded=0;labelBorderColor=none;fontSize=12;fontStyle=1;fillColor=#E6E6E6;strokeColor=#454545;fontColor=#333333;" parent="1" vertex="1">
          <mxGeometry x="1624" y="1071" width="100" height="40" as="geometry" />
        </mxCell>
        <mxCell id="g4oVjJQtsdM4NGJoOiEY-131" value="FSupply" style="shape=rhombus;perimeter=rhombusPerimeter;whiteSpace=wrap;html=1;align=center;labelBackgroundColor=none;rounded=0;labelBorderColor=none;fontSize=12;fontStyle=1;fillColor=#E6E6E6;strokeColor=#454545;fontColor=#333333;" parent="1" vertex="1">
          <mxGeometry x="1430" y="1061" width="120" height="60" as="geometry" />
        </mxCell>
        <mxCell id="g4oVjJQtsdM4NGJoOiEY-132" value="" style="endArrow=none;html=1;rounded=0;entryX=0;entryY=0.5;entryDx=0;entryDy=0;exitX=1;exitY=0.75;exitDx=0;exitDy=0;labelBackgroundColor=none;fontColor=#333333;labelBorderColor=none;fontSize=12;fontStyle=1;strokeColor=#454545;fillColor=#E6E6E6;" parent="1" source="g4oVjJQtsdM4NGJoOiEY-65" target="g4oVjJQtsdM4NGJoOiEY-131" edge="1">
          <mxGeometry relative="1" as="geometry">
            <mxPoint x="1536" y="1101" as="sourcePoint" />
            <mxPoint x="1696" y="1101" as="targetPoint" />
          </mxGeometry>
        </mxCell>
        <mxCell id="g4oVjJQtsdM4NGJoOiEY-133" value="M" style="resizable=0;html=1;whiteSpace=wrap;align=center;verticalAlign=middle;labelBackgroundColor=none;rounded=0;labelBorderColor=none;fontSize=12;fontStyle=1;fillColor=#E6E6E6;strokeColor=#454545;fontColor=#333333;" parent="g4oVjJQtsdM4NGJoOiEY-132" connectable="0" vertex="1">
          <mxGeometry x="1" relative="1" as="geometry">
            <mxPoint x="-2" y="11" as="offset" />
          </mxGeometry>
        </mxCell>
        <mxCell id="g4oVjJQtsdM4NGJoOiEY-134" value="" style="shape=link;html=1;rounded=0;entryX=1;entryY=0.5;entryDx=0;entryDy=0;exitX=0;exitY=0.5;exitDx=0;exitDy=0;labelBackgroundColor=none;fontColor=#333333;labelBorderColor=none;fontSize=12;fontStyle=1;strokeColor=#454545;fillColor=#E6E6E6;" parent="1" source="g4oVjJQtsdM4NGJoOiEY-130" target="g4oVjJQtsdM4NGJoOiEY-131" edge="1">
          <mxGeometry relative="1" as="geometry">
            <mxPoint x="1574" y="1191" as="sourcePoint" />
            <mxPoint x="1538" y="1091" as="targetPoint" />
          </mxGeometry>
        </mxCell>
        <mxCell id="g4oVjJQtsdM4NGJoOiEY-135" value="N" style="resizable=0;html=1;whiteSpace=wrap;align=center;verticalAlign=middle;labelBackgroundColor=none;rounded=0;labelBorderColor=none;fontSize=12;fontStyle=1;fillColor=#E6E6E6;strokeColor=#454545;fontColor=#333333;" parent="g4oVjJQtsdM4NGJoOiEY-134" connectable="0" vertex="1">
          <mxGeometry x="1" relative="1" as="geometry">
            <mxPoint x="5" y="10" as="offset" />
          </mxGeometry>
        </mxCell>
        <mxCell id="g4oVjJQtsdM4NGJoOiEY-136" value="provider_id" style="ellipse;whiteSpace=wrap;html=1;align=center;fontStyle=5;labelBackgroundColor=none;rounded=0;labelBorderColor=none;fontSize=12;fillColor=#E6E6E6;strokeColor=#454545;fontColor=#333333;" parent="1" vertex="1">
          <mxGeometry x="1539" y="1136" width="100" height="40" as="geometry" />
        </mxCell>
        <mxCell id="g4oVjJQtsdM4NGJoOiEY-137" value="price_per_liter" style="ellipse;whiteSpace=wrap;html=1;align=center;labelBackgroundColor=none;rounded=0;labelBorderColor=none;fontSize=12;fontStyle=1;fillColor=#E6E6E6;strokeColor=#454545;fontColor=#333333;" parent="1" vertex="1">
          <mxGeometry x="1646" y="1149" width="100" height="40" as="geometry" />
        </mxCell>
        <mxCell id="g4oVjJQtsdM4NGJoOiEY-138" value="" style="endArrow=none;html=1;rounded=0;entryX=0.25;entryY=1;entryDx=0;entryDy=0;exitX=0.5;exitY=0;exitDx=0;exitDy=0;labelBackgroundColor=none;fontColor=#333333;labelBorderColor=none;fontSize=12;fontStyle=1;strokeColor=#454545;fillColor=#E6E6E6;" parent="1" source="g4oVjJQtsdM4NGJoOiEY-136" target="g4oVjJQtsdM4NGJoOiEY-130" edge="1">
          <mxGeometry relative="1" as="geometry">
            <mxPoint x="1524" y="1101" as="sourcePoint" />
            <mxPoint x="1684" y="1101" as="targetPoint" />
          </mxGeometry>
        </mxCell>
        <mxCell id="g4oVjJQtsdM4NGJoOiEY-139" value="" style="endArrow=none;html=1;rounded=0;entryX=0.639;entryY=1.017;entryDx=0;entryDy=0;entryPerimeter=0;exitX=0.5;exitY=0;exitDx=0;exitDy=0;labelBackgroundColor=none;fontColor=#333333;labelBorderColor=none;fontSize=12;fontStyle=1;strokeColor=#454545;fillColor=#E6E6E6;" parent="1" source="g4oVjJQtsdM4NGJoOiEY-137" target="g4oVjJQtsdM4NGJoOiEY-130" edge="1">
          <mxGeometry relative="1" as="geometry">
            <mxPoint x="1524" y="1101" as="sourcePoint" />
            <mxPoint x="1684" y="1101" as="targetPoint" />
          </mxGeometry>
        </mxCell>
        <mxCell id="oE3xKzw1XIDrSMcUNoub-1" value="Cashier" style="whiteSpace=wrap;html=1;align=center;rounded=0;labelBackgroundColor=none;labelBorderColor=none;fontSize=12;fontStyle=1;fillColor=#E6E6E6;strokeColor=#454545;fontColor=#333333;" parent="1" vertex="1">
          <mxGeometry x="669.5" y="1062" width="100" height="40" as="geometry" />
        </mxCell>
        <mxCell id="oE3xKzw1XIDrSMcUNoub-2" value="Cashier_id" style="ellipse;whiteSpace=wrap;html=1;align=center;fontStyle=5;rounded=0;labelBackgroundColor=none;labelBorderColor=none;fontSize=12;fillColor=#E6E6E6;strokeColor=#454545;fontColor=#333333;" parent="1" vertex="1">
          <mxGeometry x="544" y="1115" width="100" height="40" as="geometry" />
        </mxCell>
        <mxCell id="oE3xKzw1XIDrSMcUNoub-4" value="previous_value" style="ellipse;whiteSpace=wrap;html=1;align=center;rounded=0;labelBackgroundColor=none;labelBorderColor=none;fontSize=12;fontStyle=1;fillColor=#E6E6E6;strokeColor=#454545;fontColor=#333333;" parent="1" vertex="1">
          <mxGeometry x="582" y="1212" width="100" height="40" as="geometry" />
        </mxCell>
        <mxCell id="oE3xKzw1XIDrSMcUNoub-5" value="current_value" style="ellipse;whiteSpace=wrap;html=1;align=center;rounded=0;labelBackgroundColor=none;labelBorderColor=none;fontSize=12;fontStyle=1;fillColor=#E6E6E6;strokeColor=#454545;fontColor=#333333;" parent="1" vertex="1">
          <mxGeometry x="532" y="1013" width="100" height="40" as="geometry" />
        </mxCell>
        <mxCell id="oE3xKzw1XIDrSMcUNoub-6" value="cash" style="ellipse;whiteSpace=wrap;html=1;align=center;rounded=0;labelBackgroundColor=none;labelBorderColor=none;fontSize=12;fontStyle=1;fillColor=#E6E6E6;strokeColor=#454545;fontColor=#333333;" parent="1" vertex="1">
          <mxGeometry x="551.5" y="1160" width="100" height="40" as="geometry" />
        </mxCell>
        <mxCell id="oE3xKzw1XIDrSMcUNoub-7" value="deferred_money" style="ellipse;whiteSpace=wrap;html=1;align=center;rounded=0;labelBackgroundColor=none;labelBorderColor=none;fontSize=12;fontStyle=1;fillColor=#E6E6E6;strokeColor=#454545;fontColor=#333333;" parent="1" vertex="1">
          <mxGeometry x="669.5" y="1166" width="100" height="40" as="geometry" />
        </mxCell>
        <mxCell id="vNWK5gKbuPxMR8d9yh76-1" value="Post" style="shape=rhombus;perimeter=rhombusPerimeter;whiteSpace=wrap;html=1;align=center;labelBackgroundColor=none;labelBorderColor=none;rounded=0;fontSize=12;fontStyle=1;fillColor=#E6E6E6;strokeColor=#454545;fontColor=#333333;" parent="1" vertex="1">
          <mxGeometry x="659.5" y="899" width="120" height="60" as="geometry" />
        </mxCell>
        <mxCell id="vNWK5gKbuPxMR8d9yh76-4" value="" style="shape=link;html=1;rounded=0;entryX=0.5;entryY=1;entryDx=0;entryDy=0;exitX=0.5;exitY=0;exitDx=0;exitDy=0;labelBackgroundColor=none;fontColor=#333333;labelBorderColor=none;fontSize=12;fontStyle=1;strokeColor=#454545;fillColor=#E6E6E6;" parent="1" source="oE3xKzw1XIDrSMcUNoub-1" target="vNWK5gKbuPxMR8d9yh76-1" edge="1">
          <mxGeometry relative="1" as="geometry">
            <mxPoint x="700" y="1066" as="sourcePoint" />
            <mxPoint x="723" y="1003" as="targetPoint" />
          </mxGeometry>
        </mxCell>
        <mxCell id="vNWK5gKbuPxMR8d9yh76-5" value="N" style="resizable=0;html=1;whiteSpace=wrap;align=center;verticalAlign=middle;labelBackgroundColor=none;labelBorderColor=none;rounded=0;fontSize=12;fontStyle=1;fillColor=#E6E6E6;strokeColor=#454545;fontColor=#333333;" parent="vNWK5gKbuPxMR8d9yh76-4" connectable="0" vertex="1">
          <mxGeometry x="1" relative="1" as="geometry">
            <mxPoint x="10" y="10" as="offset" />
          </mxGeometry>
        </mxCell>
        <mxCell id="vNWK5gKbuPxMR8d9yh76-6" value="Gas Stations" style="whiteSpace=wrap;html=1;align=center;labelBorderColor=none;labelBackgroundColor=none;rounded=0;fontSize=12;fontStyle=1;fillColor=#E6E6E6;strokeColor=#454545;fontColor=#333333;" parent="1" vertex="1">
          <mxGeometry x="1046" y="402" width="100" height="40" as="geometry" />
        </mxCell>
        <mxCell id="vNWK5gKbuPxMR8d9yh76-7" value="name" style="ellipse;whiteSpace=wrap;html=1;align=center;fontStyle=5;labelBorderColor=none;labelBackgroundColor=none;rounded=0;fontSize=12;fillColor=#E6E6E6;strokeColor=#454545;fontColor=#333333;" parent="1" vertex="1">
          <mxGeometry x="976" y="289" width="100" height="40" as="geometry" />
        </mxCell>
        <mxCell id="vNWK5gKbuPxMR8d9yh76-9" value="" style="endArrow=none;html=1;rounded=0;exitX=0.5;exitY=1;exitDx=0;exitDy=0;entryX=0.25;entryY=0;entryDx=0;entryDy=0;labelBorderColor=none;fontColor=#333333;labelBackgroundColor=none;fontSize=12;fontStyle=1;strokeColor=#454545;fillColor=#E6E6E6;" parent="1" source="vNWK5gKbuPxMR8d9yh76-7" target="vNWK5gKbuPxMR8d9yh76-6" edge="1">
          <mxGeometry relative="1" as="geometry">
            <mxPoint x="994" y="498" as="sourcePoint" />
            <mxPoint x="1154" y="498" as="targetPoint" />
          </mxGeometry>
        </mxCell>
        <mxCell id="vNWK5gKbuPxMR8d9yh76-11" value="location" style="ellipse;shape=doubleEllipse;margin=3;whiteSpace=wrap;html=1;align=center;labelBorderColor=none;labelBackgroundColor=none;rounded=0;fontSize=12;fontStyle=1;fillColor=#E6E6E6;strokeColor=#454545;fontColor=#333333;" parent="1" vertex="1">
          <mxGeometry x="1082" y="269" width="100" height="40" as="geometry" />
        </mxCell>
        <mxCell id="vNWK5gKbuPxMR8d9yh76-13" value="" style="endArrow=none;html=1;rounded=0;exitX=0.5;exitY=1;exitDx=0;exitDy=0;entryX=0.59;entryY=-0.015;entryDx=0;entryDy=0;entryPerimeter=0;labelBorderColor=none;fontColor=#333333;labelBackgroundColor=none;fontSize=12;fontStyle=1;strokeColor=#454545;fillColor=#E6E6E6;" parent="1" source="vNWK5gKbuPxMR8d9yh76-11" target="vNWK5gKbuPxMR8d9yh76-6" edge="1">
          <mxGeometry relative="1" as="geometry">
            <mxPoint x="1036" y="339" as="sourcePoint" />
            <mxPoint x="1098" y="386" as="targetPoint" />
          </mxGeometry>
        </mxCell>
        <mxCell id="vNWK5gKbuPxMR8d9yh76-14" value="Work in" style="shape=rhombus;perimeter=rhombusPerimeter;whiteSpace=wrap;html=1;align=center;labelBorderColor=none;labelBackgroundColor=none;rounded=0;fontSize=12;fontStyle=1;fillColor=#E6E6E6;strokeColor=#454545;fontColor=#333333;" parent="1" vertex="1">
          <mxGeometry x="1036" y="520" width="120" height="60" as="geometry" />
        </mxCell>
        <mxCell id="vNWK5gKbuPxMR8d9yh76-15" value="" style="shape=link;html=1;rounded=0;exitX=0.5;exitY=1;exitDx=0;exitDy=0;entryX=0.5;entryY=0;entryDx=0;entryDy=0;labelBorderColor=none;fontColor=#333333;labelBackgroundColor=none;fontSize=12;fontStyle=1;strokeColor=#454545;fillColor=#E6E6E6;" parent="1" source="vNWK5gKbuPxMR8d9yh76-6" target="vNWK5gKbuPxMR8d9yh76-14" edge="1">
          <mxGeometry relative="1" as="geometry">
            <mxPoint x="1024" y="643" as="sourcePoint" />
            <mxPoint x="1184" y="643" as="targetPoint" />
          </mxGeometry>
        </mxCell>
        <mxCell id="vNWK5gKbuPxMR8d9yh76-16" value="N" style="resizable=0;html=1;whiteSpace=wrap;align=center;verticalAlign=middle;labelBorderColor=none;labelBackgroundColor=none;rounded=0;fontSize=12;fontStyle=1;fillColor=#E6E6E6;strokeColor=#454545;fontColor=#333333;" parent="vNWK5gKbuPxMR8d9yh76-15" connectable="0" vertex="1">
          <mxGeometry x="1" relative="1" as="geometry">
            <mxPoint x="9" y="-6" as="offset" />
          </mxGeometry>
        </mxCell>
        <mxCell id="vNWK5gKbuPxMR8d9yh76-17" value="" style="shape=link;html=1;rounded=0;entryX=0.5;entryY=1;entryDx=0;entryDy=0;exitX=1;exitY=0.25;exitDx=0;exitDy=0;labelBorderColor=none;fontColor=#333333;labelBackgroundColor=none;fontSize=12;fontStyle=1;strokeColor=#454545;fillColor=#E6E6E6;" parent="1" source="g4oVjJQtsdM4NGJoOiEY-1" target="vNWK5gKbuPxMR8d9yh76-14" edge="1">
          <mxGeometry relative="1" as="geometry">
            <mxPoint x="1024" y="643" as="sourcePoint" />
            <mxPoint x="1184" y="643" as="targetPoint" />
            <Array as="points">
              <mxPoint x="1096" y="775" />
              <mxPoint x="1096" y="686" />
            </Array>
          </mxGeometry>
        </mxCell>
        <mxCell id="vNWK5gKbuPxMR8d9yh76-18" value="1" style="resizable=0;html=1;whiteSpace=wrap;align=center;verticalAlign=middle;labelBorderColor=none;labelBackgroundColor=none;rounded=0;fontSize=12;fontStyle=1;fillColor=#E6E6E6;strokeColor=#454545;fontColor=#333333;" parent="vNWK5gKbuPxMR8d9yh76-17" connectable="0" vertex="1">
          <mxGeometry x="1" relative="1" as="geometry">
            <mxPoint x="9" y="7" as="offset" />
          </mxGeometry>
        </mxCell>
        <mxCell id="vNWK5gKbuPxMR8d9yh76-19" value="Has a" style="shape=rhombus;perimeter=rhombusPerimeter;whiteSpace=wrap;html=1;align=center;labelBorderColor=none;labelBackgroundColor=none;rounded=0;fontSize=12;fontStyle=1;fillColor=#E6E6E6;strokeColor=#454545;fontColor=#333333;" parent="1" vertex="1">
          <mxGeometry x="1824" y="387" width="120" height="60" as="geometry" />
        </mxCell>
        <mxCell id="vNWK5gKbuPxMR8d9yh76-20" value="" style="shape=link;html=1;rounded=0;entryX=0.008;entryY=0.5;entryDx=0;entryDy=0;entryPerimeter=0;exitX=1;exitY=0.5;exitDx=0;exitDy=0;labelBorderColor=none;fontColor=#333333;labelBackgroundColor=none;fontSize=12;fontStyle=1;strokeColor=#454545;fillColor=#E6E6E6;" parent="1" source="vNWK5gKbuPxMR8d9yh76-6" target="vNWK5gKbuPxMR8d9yh76-19" edge="1">
          <mxGeometry relative="1" as="geometry">
            <mxPoint x="1644" y="516" as="sourcePoint" />
            <mxPoint x="1804" y="516" as="targetPoint" />
          </mxGeometry>
        </mxCell>
        <mxCell id="vNWK5gKbuPxMR8d9yh76-21" value="1" style="resizable=0;html=1;whiteSpace=wrap;align=center;verticalAlign=middle;labelBorderColor=none;labelBackgroundColor=none;rounded=0;fontSize=12;fontStyle=1;fillColor=#E6E6E6;strokeColor=#454545;fontColor=#333333;" parent="vNWK5gKbuPxMR8d9yh76-20" connectable="0" vertex="1">
          <mxGeometry x="1" relative="1" as="geometry">
            <mxPoint x="-2" y="-12" as="offset" />
          </mxGeometry>
        </mxCell>
        <mxCell id="vNWK5gKbuPxMR8d9yh76-22" value="Mini market" style="whiteSpace=wrap;html=1;align=center;labelBorderColor=none;labelBackgroundColor=none;rounded=0;fontSize=12;fontStyle=1;fillColor=#E6E6E6;strokeColor=#454545;fontColor=#333333;" parent="1" vertex="1">
          <mxGeometry x="1869" y="870" width="100" height="40" as="geometry" />
        </mxCell>
        <mxCell id="vNWK5gKbuPxMR8d9yh76-23" value="" style="shape=link;html=1;rounded=0;entryX=0.5;entryY=1;entryDx=0;entryDy=0;labelBorderColor=none;fontColor=#333333;labelBackgroundColor=none;fontSize=12;fontStyle=1;strokeColor=#454545;fillColor=#E6E6E6;exitX=0.116;exitY=-0.003;exitDx=0;exitDy=0;exitPerimeter=0;" parent="1" source="vNWK5gKbuPxMR8d9yh76-22" target="vNWK5gKbuPxMR8d9yh76-19" edge="1">
          <mxGeometry relative="1" as="geometry">
            <mxPoint x="1884" y="950" as="sourcePoint" />
            <mxPoint x="2234" y="685" as="targetPoint" />
          </mxGeometry>
        </mxCell>
        <mxCell id="vNWK5gKbuPxMR8d9yh76-24" value="1" style="resizable=0;html=1;whiteSpace=wrap;align=center;verticalAlign=middle;labelBorderColor=none;labelBackgroundColor=none;rounded=0;fontSize=12;fontStyle=1;fillColor=#E6E6E6;strokeColor=#454545;fontColor=#333333;" parent="vNWK5gKbuPxMR8d9yh76-23" connectable="0" vertex="1">
          <mxGeometry x="1" relative="1" as="geometry">
            <mxPoint x="9" y="10" as="offset" />
          </mxGeometry>
        </mxCell>
        <mxCell id="vNWK5gKbuPxMR8d9yh76-25" value="Product" style="whiteSpace=wrap;html=1;align=center;labelBorderColor=none;labelBackgroundColor=none;rounded=0;fontSize=12;fontStyle=1;fillColor=#E6E6E6;strokeColor=#454545;fontColor=#333333;" parent="1" vertex="1">
          <mxGeometry x="2031" y="986" width="100" height="40" as="geometry" />
        </mxCell>
        <mxCell id="vNWK5gKbuPxMR8d9yh76-26" value="Has a" style="shape=rhombus;perimeter=rhombusPerimeter;whiteSpace=wrap;html=1;align=center;labelBorderColor=none;labelBackgroundColor=none;rounded=0;fontSize=12;fontStyle=1;fillColor=#E6E6E6;strokeColor=#454545;fontColor=#333333;" parent="1" vertex="1">
          <mxGeometry x="2021" y="860" width="120" height="60" as="geometry" />
        </mxCell>
        <mxCell id="vNWK5gKbuPxMR8d9yh76-27" value="" style="shape=link;html=1;rounded=0;exitX=1;exitY=0.5;exitDx=0;exitDy=0;entryX=0;entryY=0.5;entryDx=0;entryDy=0;labelBorderColor=none;fontColor=#333333;labelBackgroundColor=none;fontSize=12;fontStyle=1;strokeColor=#454545;fillColor=#E6E6E6;" parent="1" source="vNWK5gKbuPxMR8d9yh76-22" target="vNWK5gKbuPxMR8d9yh76-26" edge="1">
          <mxGeometry relative="1" as="geometry">
            <mxPoint x="1821" y="1102" as="sourcePoint" />
            <mxPoint x="1981" y="1102" as="targetPoint" />
          </mxGeometry>
        </mxCell>
        <mxCell id="vNWK5gKbuPxMR8d9yh76-28" value="N" style="resizable=0;html=1;whiteSpace=wrap;align=center;verticalAlign=middle;labelBorderColor=none;labelBackgroundColor=none;rounded=0;fontSize=12;fontStyle=1;fillColor=#E6E6E6;strokeColor=#454545;fontColor=#333333;" parent="vNWK5gKbuPxMR8d9yh76-27" connectable="0" vertex="1">
          <mxGeometry x="1" relative="1" as="geometry">
            <mxPoint x="-2" y="-13" as="offset" />
          </mxGeometry>
        </mxCell>
        <mxCell id="vNWK5gKbuPxMR8d9yh76-29" value="" style="shape=link;html=1;rounded=0;exitX=0.5;exitY=0;exitDx=0;exitDy=0;entryX=0.5;entryY=1;entryDx=0;entryDy=0;labelBorderColor=none;fontColor=#333333;labelBackgroundColor=none;fontSize=12;fontStyle=1;strokeColor=#454545;fillColor=#E6E6E6;" parent="1" source="vNWK5gKbuPxMR8d9yh76-25" target="vNWK5gKbuPxMR8d9yh76-26" edge="1">
          <mxGeometry relative="1" as="geometry">
            <mxPoint x="2003" y="1096" as="sourcePoint" />
            <mxPoint x="1897" y="1015" as="targetPoint" />
            <Array as="points" />
          </mxGeometry>
        </mxCell>
        <mxCell id="vNWK5gKbuPxMR8d9yh76-30" value="1" style="resizable=0;html=1;whiteSpace=wrap;align=center;verticalAlign=middle;labelBorderColor=none;labelBackgroundColor=none;rounded=0;fontSize=12;fontStyle=1;fillColor=#E6E6E6;strokeColor=#454545;fontColor=#333333;" parent="vNWK5gKbuPxMR8d9yh76-29" connectable="0" vertex="1">
          <mxGeometry x="1" relative="1" as="geometry">
            <mxPoint x="9" y="8" as="offset" />
          </mxGeometry>
        </mxCell>
        <mxCell id="vNWK5gKbuPxMR8d9yh76-31" value="trade mark" style="ellipse;shape=doubleEllipse;margin=3;whiteSpace=wrap;html=1;align=center;rounded=0;labelBackgroundColor=none;labelBorderColor=none;fontSize=12;fontStyle=5;fillColor=#E6E6E6;strokeColor=#454545;fontColor=#333333;" parent="1" vertex="1">
          <mxGeometry x="1992" y="781" width="100" height="40" as="geometry" />
        </mxCell>
        <mxCell id="vNWK5gKbuPxMR8d9yh76-32" value="" style="endArrow=none;html=1;rounded=0;entryX=0;entryY=0.5;entryDx=0;entryDy=0;labelBorderColor=none;fontColor=#333333;labelBackgroundColor=none;fontSize=12;fontStyle=1;strokeColor=#454545;fillColor=#E6E6E6;exitX=0.889;exitY=-0.001;exitDx=0;exitDy=0;exitPerimeter=0;" parent="1" source="vNWK5gKbuPxMR8d9yh76-22" target="vNWK5gKbuPxMR8d9yh76-31" edge="1">
          <mxGeometry relative="1" as="geometry">
            <mxPoint x="1933" y="869" as="sourcePoint" />
            <mxPoint x="2092" y="836" as="targetPoint" />
          </mxGeometry>
        </mxCell>
        <mxCell id="vNWK5gKbuPxMR8d9yh76-35" value="Barcode number" style="ellipse;whiteSpace=wrap;html=1;align=center;fontStyle=5;labelBorderColor=none;labelBackgroundColor=none;rounded=0;fontSize=12;fillColor=#E6E6E6;strokeColor=#454545;fontColor=#333333;" parent="1" vertex="1">
          <mxGeometry x="1980" y="1091" width="100" height="40" as="geometry" />
        </mxCell>
        <mxCell id="vNWK5gKbuPxMR8d9yh76-36" value="" style="endArrow=none;html=1;rounded=0;entryX=0.16;entryY=0.992;entryDx=0;entryDy=0;entryPerimeter=0;exitX=0.5;exitY=0;exitDx=0;exitDy=0;labelBorderColor=none;fontColor=#333333;labelBackgroundColor=none;fontSize=12;fontStyle=1;strokeColor=#454545;fillColor=#E6E6E6;" parent="1" source="vNWK5gKbuPxMR8d9yh76-35" target="vNWK5gKbuPxMR8d9yh76-25" edge="1">
          <mxGeometry relative="1" as="geometry">
            <mxPoint x="2002" y="780" as="sourcePoint" />
            <mxPoint x="2038" y="740" as="targetPoint" />
            <Array as="points" />
          </mxGeometry>
        </mxCell>
        <mxCell id="vNWK5gKbuPxMR8d9yh76-37" value="name" style="ellipse;shape=doubleEllipse;margin=3;whiteSpace=wrap;html=1;align=center;rounded=0;labelBackgroundColor=none;labelBorderColor=none;fontSize=12;fontStyle=1;fillColor=#E6E6E6;strokeColor=#454545;fontColor=#333333;" parent="1" vertex="1">
          <mxGeometry x="2043" y="1052" width="100" height="40" as="geometry" />
        </mxCell>
        <mxCell id="vNWK5gKbuPxMR8d9yh76-38" value="" style="endArrow=none;html=1;rounded=0;entryX=0.5;entryY=1;entryDx=0;entryDy=0;exitX=0.449;exitY=-0.015;exitDx=0;exitDy=0;exitPerimeter=0;labelBorderColor=none;fontColor=#333333;labelBackgroundColor=none;fontSize=12;fontStyle=1;strokeColor=#454545;fillColor=#E6E6E6;" parent="1" source="vNWK5gKbuPxMR8d9yh76-37" target="vNWK5gKbuPxMR8d9yh76-25" edge="1">
          <mxGeometry relative="1" as="geometry">
            <mxPoint x="2030" y="1099" as="sourcePoint" />
            <mxPoint x="2055" y="1039" as="targetPoint" />
            <Array as="points" />
          </mxGeometry>
        </mxCell>
        <mxCell id="vNWK5gKbuPxMR8d9yh76-39" value="Price" style="ellipse;whiteSpace=wrap;html=1;align=center;labelBorderColor=none;labelBackgroundColor=none;rounded=0;fontSize=12;fontStyle=1;fillColor=#E6E6E6;strokeColor=#454545;fontColor=#333333;" parent="1" vertex="1">
          <mxGeometry x="2109" y="1092" width="100" height="40" as="geometry" />
        </mxCell>
        <mxCell id="vNWK5gKbuPxMR8d9yh76-40" value="" style="endArrow=none;html=1;rounded=0;entryX=0.891;entryY=1.018;entryDx=0;entryDy=0;exitX=0.633;exitY=0.036;exitDx=0;exitDy=0;exitPerimeter=0;entryPerimeter=0;labelBorderColor=none;fontColor=#333333;labelBackgroundColor=none;fontSize=12;fontStyle=1;strokeColor=#454545;fillColor=#E6E6E6;" parent="1" source="vNWK5gKbuPxMR8d9yh76-39" target="vNWK5gKbuPxMR8d9yh76-25" edge="1">
          <mxGeometry relative="1" as="geometry">
            <mxPoint x="2082" y="1063" as="sourcePoint" />
            <mxPoint x="2079" y="1036" as="targetPoint" />
            <Array as="points" />
          </mxGeometry>
        </mxCell>
        <mxCell id="r--STZxaHeFdET9zEWog-1" value="&lt;b&gt;Has a&lt;/b&gt;" style="shape=rhombus;perimeter=rhombusPerimeter;whiteSpace=wrap;html=1;align=center;labelBackgroundColor=none;fillColor=#E6E6E6;strokeColor=#454545;fontColor=#333333;rounded=0;labelBorderColor=none;fontStyle=1;" parent="1" vertex="1">
          <mxGeometry x="1754" y="472.5" width="120" height="60" as="geometry" />
        </mxCell>
        <mxCell id="r--STZxaHeFdET9zEWog-4" value="" style="shape=link;html=1;rounded=0;entryX=0.5;entryY=1;entryDx=0;entryDy=0;labelBorderColor=none;fontColor=#333333;labelBackgroundColor=none;fontSize=12;fontStyle=1;strokeColor=#454545;fillColor=#E6E6E6;exitX=0.825;exitY=-0.01;exitDx=0;exitDy=0;exitPerimeter=0;" parent="1" source="g4oVjJQtsdM4NGJoOiEY-65" target="r--STZxaHeFdET9zEWog-1" edge="1">
          <mxGeometry relative="1" as="geometry">
            <mxPoint x="1359" y="1059" as="sourcePoint" />
            <mxPoint x="1920" y="467" as="targetPoint" />
            <Array as="points">
              <mxPoint x="1359" y="1029" />
              <mxPoint x="1432" y="1029" />
              <mxPoint x="1814" y="1029" />
            </Array>
          </mxGeometry>
        </mxCell>
        <mxCell id="r--STZxaHeFdET9zEWog-5" value="N" style="resizable=0;html=1;whiteSpace=wrap;align=center;verticalAlign=middle;labelBorderColor=none;labelBackgroundColor=none;rounded=0;fontSize=12;fontStyle=1;fillColor=#E6E6E6;strokeColor=#454545;fontColor=#333333;" parent="r--STZxaHeFdET9zEWog-4" connectable="0" vertex="1">
          <mxGeometry x="1" relative="1" as="geometry">
            <mxPoint x="11" y="10" as="offset" />
          </mxGeometry>
        </mxCell>
        <mxCell id="r--STZxaHeFdET9zEWog-8" value="" style="shape=link;html=1;rounded=0;entryX=0;entryY=0.5;entryDx=0;entryDy=0;labelBorderColor=none;fontColor=#333333;labelBackgroundColor=none;fontSize=12;fontStyle=1;strokeColor=#454545;fillColor=#E6E6E6;exitX=0.75;exitY=1;exitDx=0;exitDy=0;" parent="1" source="vNWK5gKbuPxMR8d9yh76-6" target="r--STZxaHeFdET9zEWog-1" edge="1">
          <mxGeometry relative="1" as="geometry">
            <mxPoint x="1145" y="441" as="sourcePoint" />
            <mxPoint x="1796" y="695" as="targetPoint" />
            <Array as="points">
              <mxPoint x="1121" y="506" />
            </Array>
          </mxGeometry>
        </mxCell>
        <mxCell id="r--STZxaHeFdET9zEWog-9" value="1" style="resizable=0;html=1;whiteSpace=wrap;align=center;verticalAlign=middle;labelBackgroundColor=none;fillColor=#E6E6E6;strokeColor=#454545;fontColor=#333333;fontStyle=1;rounded=0;labelBorderColor=none;" parent="r--STZxaHeFdET9zEWog-8" connectable="0" vertex="1">
          <mxGeometry x="1" relative="1" as="geometry">
            <mxPoint y="-12" as="offset" />
          </mxGeometry>
        </mxCell>
        <mxCell id="x4arMqCCryayOVoLSVZp-3" value="" style="endArrow=none;html=1;rounded=0;exitX=0.5;exitY=1;exitDx=0;exitDy=0;entryX=0.5;entryY=0;entryDx=0;entryDy=0;labelBackgroundColor=none;strokeColor=#454545;fontColor=#333333;fontSize=12;fillColor=#E6E6E6;labelBorderColor=none;fontStyle=1;" parent="1" source="g4oVjJQtsdM4NGJoOiEY-1" target="g4oVjJQtsdM4NGJoOiEY-93" edge="1">
          <mxGeometry relative="1" as="geometry">
            <mxPoint x="992" y="904" as="sourcePoint" />
            <mxPoint x="1152" y="904" as="targetPoint" />
          </mxGeometry>
        </mxCell>
        <mxCell id="x4arMqCCryayOVoLSVZp-4" value="N" style="resizable=0;html=1;whiteSpace=wrap;align=center;verticalAlign=middle;labelBackgroundColor=none;fillColor=#E6E6E6;strokeColor=#454545;fontColor=#333333;fontStyle=1;rounded=0;labelBorderColor=none;" parent="x4arMqCCryayOVoLSVZp-3" connectable="0" vertex="1">
          <mxGeometry x="1" relative="1" as="geometry">
            <mxPoint x="11" y="-6" as="offset" />
          </mxGeometry>
        </mxCell>
        <mxCell id="x4arMqCCryayOVoLSVZp-5" value="" style="shape=link;html=1;rounded=0;entryX=0.5;entryY=1;entryDx=0;entryDy=0;labelBackgroundColor=none;strokeColor=#454545;fontColor=#333333;fontSize=12;fillColor=#E6E6E6;labelBorderColor=none;fontStyle=1;width=-4.761904761904762;exitX=0.5;exitY=0;exitDx=0;exitDy=0;" parent="1" source="g4oVjJQtsdM4NGJoOiEY-80" target="g4oVjJQtsdM4NGJoOiEY-93" edge="1">
          <mxGeometry relative="1" as="geometry">
            <mxPoint x="959" y="1101" as="sourcePoint" />
            <mxPoint x="1152" y="904" as="targetPoint" />
          </mxGeometry>
        </mxCell>
        <mxCell id="x4arMqCCryayOVoLSVZp-6" value="1" style="resizable=0;html=1;whiteSpace=wrap;align=center;verticalAlign=middle;labelBackgroundColor=none;fillColor=#E6E6E6;strokeColor=#454545;fontColor=#333333;fontStyle=1;rounded=0;labelBorderColor=none;" parent="x4arMqCCryayOVoLSVZp-5" connectable="0" vertex="1">
          <mxGeometry x="1" relative="1" as="geometry">
            <mxPoint x="10" y="8" as="offset" />
          </mxGeometry>
        </mxCell>
        <mxCell id="x4arMqCCryayOVoLSVZp-21" value="" style="endArrow=none;html=1;rounded=0;entryX=1;entryY=0.5;entryDx=0;entryDy=0;labelBackgroundColor=none;strokeColor=#454545;fontColor=#333333;fontSize=12;fillColor=#E6E6E6;labelBorderColor=none;fontStyle=1;" parent="1" target="oE3xKzw1XIDrSMcUNoub-5" edge="1">
          <mxGeometry relative="1" as="geometry">
            <mxPoint x="669" y="1066" as="sourcePoint" />
            <mxPoint x="845.5" y="1149" as="targetPoint" />
          </mxGeometry>
        </mxCell>
        <mxCell id="x4arMqCCryayOVoLSVZp-22" value="" style="endArrow=none;html=1;rounded=0;exitX=0.625;exitY=0;exitDx=0;exitDy=0;entryX=0.645;entryY=1;entryDx=0;entryDy=0;labelBackgroundColor=none;strokeColor=#454545;fontColor=#333333;fontSize=12;fillColor=#E6E6E6;labelBorderColor=none;fontStyle=1;exitPerimeter=0;entryPerimeter=0;" parent="1" source="oE3xKzw1XIDrSMcUNoub-7" target="oE3xKzw1XIDrSMcUNoub-1" edge="1">
          <mxGeometry relative="1" as="geometry">
            <mxPoint x="685.5" y="1164" as="sourcePoint" />
            <mxPoint x="845.5" y="1164" as="targetPoint" />
          </mxGeometry>
        </mxCell>
        <mxCell id="x4arMqCCryayOVoLSVZp-23" value="" style="endArrow=none;html=1;rounded=0;exitX=1;exitY=0.5;exitDx=0;exitDy=0;entryX=0.13;entryY=1.002;entryDx=0;entryDy=0;labelBackgroundColor=none;strokeColor=#454545;fontColor=#333333;fontSize=12;fillColor=#E6E6E6;labelBorderColor=none;fontStyle=1;entryPerimeter=0;" parent="1" source="oE3xKzw1XIDrSMcUNoub-2" target="oE3xKzw1XIDrSMcUNoub-1" edge="1">
          <mxGeometry relative="1" as="geometry">
            <mxPoint x="684.5" y="1101" as="sourcePoint" />
            <mxPoint x="844.5" y="1101" as="targetPoint" />
          </mxGeometry>
        </mxCell>
        <mxCell id="x4arMqCCryayOVoLSVZp-24" value="" style="endArrow=none;html=1;rounded=0;entryX=1;entryY=0;entryDx=0;entryDy=0;exitX=0.25;exitY=1;exitDx=0;exitDy=0;labelBackgroundColor=none;strokeColor=#454545;fontColor=#333333;fontSize=12;fillColor=#E6E6E6;labelBorderColor=none;fontStyle=1;" parent="1" source="oE3xKzw1XIDrSMcUNoub-1" target="oE3xKzw1XIDrSMcUNoub-6" edge="1">
          <mxGeometry relative="1" as="geometry">
            <mxPoint x="684.5" y="1101" as="sourcePoint" />
            <mxPoint x="844.5" y="1101" as="targetPoint" />
          </mxGeometry>
        </mxCell>
        <mxCell id="x4arMqCCryayOVoLSVZp-25" value="" style="endArrow=none;html=1;rounded=0;entryX=0.301;entryY=1.002;entryDx=0;entryDy=0;labelBackgroundColor=none;strokeColor=#454545;fontColor=#333333;fontSize=12;fillColor=#E6E6E6;labelBorderColor=none;fontStyle=1;entryPerimeter=0;exitX=0.635;exitY=0.031;exitDx=0;exitDy=0;exitPerimeter=0;" parent="1" source="oE3xKzw1XIDrSMcUNoub-4" target="oE3xKzw1XIDrSMcUNoub-1" edge="1">
          <mxGeometry relative="1" as="geometry">
            <mxPoint x="652" y="1172" as="sourcePoint" />
            <mxPoint x="845.5" y="1164" as="targetPoint" />
          </mxGeometry>
        </mxCell>
        <mxCell id="x4arMqCCryayOVoLSVZp-26" value="&lt;b&gt;Work on&lt;/b&gt;" style="shape=rhombus;perimeter=rhombusPerimeter;whiteSpace=wrap;html=1;align=center;labelBackgroundColor=none;fillColor=#E6E6E6;strokeColor=#454545;fontColor=#333333;rounded=0;labelBorderColor=none;fontStyle=1;" parent="1" vertex="1">
          <mxGeometry x="1898" y="191" width="120" height="60" as="geometry" />
        </mxCell>
        <mxCell id="x4arMqCCryayOVoLSVZp-27" value="" style="shape=link;html=1;rounded=0;entryX=0.5;entryY=1;entryDx=0;entryDy=0;labelBackgroundColor=none;strokeColor=#454545;fontColor=#333333;fontSize=12;fillColor=#E6E6E6;labelBorderColor=none;fontStyle=1;exitX=0.854;exitY=0.007;exitDx=0;exitDy=0;exitPerimeter=0;" parent="1" source="vNWK5gKbuPxMR8d9yh76-22" target="x4arMqCCryayOVoLSVZp-26" edge="1">
          <mxGeometry relative="1" as="geometry">
            <mxPoint x="1954" y="950" as="sourcePoint" />
            <mxPoint x="1780" y="641" as="targetPoint" />
            <Array as="points" />
          </mxGeometry>
        </mxCell>
        <mxCell id="x4arMqCCryayOVoLSVZp-28" value="1" style="resizable=0;html=1;whiteSpace=wrap;align=center;verticalAlign=middle;labelBackgroundColor=none;fillColor=#E6E6E6;strokeColor=#454545;fontColor=#333333;fontStyle=1;rounded=0;labelBorderColor=none;" parent="x4arMqCCryayOVoLSVZp-27" connectable="0" vertex="1">
          <mxGeometry x="1" relative="1" as="geometry">
            <mxPoint x="10" y="8" as="offset" />
          </mxGeometry>
        </mxCell>
        <mxCell id="x4arMqCCryayOVoLSVZp-29" value="" style="endArrow=none;html=1;rounded=0;entryX=0;entryY=0.5;entryDx=0;entryDy=0;exitX=0.599;exitY=0.001;exitDx=0;exitDy=0;exitPerimeter=0;labelBackgroundColor=none;strokeColor=#454545;fontColor=#333333;fontSize=12;fillColor=#E6E6E6;labelBorderColor=none;fontStyle=1;" parent="1" source="g4oVjJQtsdM4NGJoOiEY-1" target="x4arMqCCryayOVoLSVZp-26" edge="1">
          <mxGeometry relative="1" as="geometry">
            <mxPoint x="1347" y="523" as="sourcePoint" />
            <mxPoint x="1507" y="523" as="targetPoint" />
            <Array as="points">
              <mxPoint x="961" y="222" />
            </Array>
          </mxGeometry>
        </mxCell>
        <mxCell id="x4arMqCCryayOVoLSVZp-30" value="1" style="resizable=0;html=1;whiteSpace=wrap;align=center;verticalAlign=middle;labelBackgroundColor=none;fillColor=#E6E6E6;strokeColor=#454545;fontColor=#333333;fontStyle=1;rounded=0;labelBorderColor=none;" parent="x4arMqCCryayOVoLSVZp-29" connectable="0" vertex="1">
          <mxGeometry x="1" relative="1" as="geometry">
            <mxPoint y="-11" as="offset" />
          </mxGeometry>
        </mxCell>
        <mxCell id="x4arMqCCryayOVoLSVZp-31" value="name" style="ellipse;shape=doubleEllipse;margin=3;whiteSpace=wrap;html=1;align=center;labelBorderColor=none;labelBackgroundColor=none;rounded=0;fontSize=12;fontStyle=1;fillColor=#E6E6E6;strokeColor=#454545;fontColor=#333333;" parent="1" vertex="1">
          <mxGeometry x="177" y="868" width="100" height="40" as="geometry" />
        </mxCell>
        <mxCell id="x4arMqCCryayOVoLSVZp-44" value="" style="endArrow=none;html=1;rounded=0;entryX=1;entryY=0.5;entryDx=0;entryDy=0;exitX=0;exitY=0.5;exitDx=0;exitDy=0;labelBackgroundColor=none;strokeColor=#454545;fontColor=#333333;fontSize=12;fillColor=#E6E6E6;labelBorderColor=none;fontStyle=1;" parent="1" source="g4oVjJQtsdM4NGJoOiEY-80" target="vNWK5gKbuPxMR8d9yh76-1" edge="1">
          <mxGeometry relative="1" as="geometry">
            <mxPoint x="889" y="995" as="sourcePoint" />
            <mxPoint x="1049" y="995" as="targetPoint" />
            <Array as="points">
              <mxPoint x="780" y="1082" />
            </Array>
          </mxGeometry>
        </mxCell>
        <mxCell id="x4arMqCCryayOVoLSVZp-45" value="1" style="resizable=0;html=1;whiteSpace=wrap;align=center;verticalAlign=middle;labelBackgroundColor=none;fillColor=#E6E6E6;strokeColor=#454545;fontColor=#333333;fontStyle=1;rounded=0;labelBorderColor=none;" parent="x4arMqCCryayOVoLSVZp-44" connectable="0" vertex="1">
          <mxGeometry x="1" relative="1" as="geometry">
            <mxPoint y="-13" as="offset" />
          </mxGeometry>
        </mxCell>
        <mxCell id="qDjkrBd_Ktdc34IyqHgb-1" value="Foreign_provider_name" style="ellipse;shape=doubleEllipse;margin=3;whiteSpace=wrap;html=1;align=center;rounded=0;labelBackgroundColor=none;labelBorderColor=none;fontSize=12;fontStyle=1;fillColor=#E6E6E6;strokeColor=#454545;fontColor=#333333;" parent="1" vertex="1">
          <mxGeometry x="1543" y="1187.5" width="160" height="51" as="geometry" />
        </mxCell>
        <mxCell id="qDjkrBd_Ktdc34IyqHgb-3" value="" style="endArrow=none;html=1;rounded=0;entryX=0.5;entryY=1;entryDx=0;entryDy=0;exitX=0.5;exitY=0;exitDx=0;exitDy=0;labelBackgroundColor=none;fontColor=#333333;labelBorderColor=none;fontSize=12;fontStyle=1;strokeColor=#454545;fillColor=#E6E6E6;" parent="1" source="qDjkrBd_Ktdc34IyqHgb-1" target="g4oVjJQtsdM4NGJoOiEY-130" edge="1">
          <mxGeometry relative="1" as="geometry">
            <mxPoint x="1619" y="1159" as="sourcePoint" />
            <mxPoint x="1668" y="1119" as="targetPoint" />
          </mxGeometry>
        </mxCell>
        <mxCell id="qDjkrBd_Ktdc34IyqHgb-5" value="quantity" style="ellipse;whiteSpace=wrap;html=1;align=center;labelBackgroundColor=none;rounded=0;labelBorderColor=none;fontSize=12;fontStyle=1;fillColor=#E6E6E6;strokeColor=#454545;fontColor=#333333;" parent="1" vertex="1">
          <mxGeometry x="1428" y="1138" width="100" height="40" as="geometry" />
        </mxCell>
        <mxCell id="qDjkrBd_Ktdc34IyqHgb-8" value="" style="endArrow=none;html=1;rounded=0;entryX=0.5;entryY=1;entryDx=0;entryDy=0;exitX=0.592;exitY=0.005;exitDx=0;exitDy=0;labelBackgroundColor=none;fontColor=#333333;labelBorderColor=none;fontSize=12;fontStyle=1;strokeColor=#454545;fillColor=#E6E6E6;exitPerimeter=0;" parent="1" source="qDjkrBd_Ktdc34IyqHgb-5" target="g4oVjJQtsdM4NGJoOiEY-131" edge="1">
          <mxGeometry relative="1" as="geometry">
            <mxPoint x="1741" y="1191" as="sourcePoint" />
            <mxPoint x="1709" y="1121" as="targetPoint" />
          </mxGeometry>
        </mxCell>
        <mxCell id="UpbgRDfw7AcTngtZnHsZ-1" value="&lt;b&gt;Work on&lt;/b&gt;" style="shape=rhombus;perimeter=rhombusPerimeter;whiteSpace=wrap;html=1;align=center;labelBackgroundColor=none;fillColor=#E6E6E6;strokeColor=#454545;fontColor=#333333;rounded=0;labelBorderColor=none;fontStyle=1;" parent="1" vertex="1">
          <mxGeometry x="659.5" y="798" width="120" height="60" as="geometry" />
        </mxCell>
        <mxCell id="UpbgRDfw7AcTngtZnHsZ-2" value="" style="shape=link;html=1;rounded=0;entryX=0;entryY=0.5;entryDx=0;entryDy=0;exitX=0;exitY=0.5;exitDx=0;exitDy=0;labelBackgroundColor=none;strokeColor=#454545;fontColor=#333333;fontSize=12;fillColor=#E6E6E6;labelBorderColor=none;fontStyle=1;" parent="1" source="oE3xKzw1XIDrSMcUNoub-1" target="UpbgRDfw7AcTngtZnHsZ-1" edge="1">
          <mxGeometry relative="1" as="geometry">
            <mxPoint x="492" y="944" as="sourcePoint" />
            <mxPoint x="652" y="944" as="targetPoint" />
            <Array as="points">
              <mxPoint x="495" y="1082" />
              <mxPoint x="494" y="828" />
            </Array>
          </mxGeometry>
        </mxCell>
        <mxCell id="UpbgRDfw7AcTngtZnHsZ-3" value="1" style="resizable=0;html=1;whiteSpace=wrap;align=center;verticalAlign=middle;labelBackgroundColor=none;fillColor=#E6E6E6;strokeColor=#454545;fontColor=#333333;fontStyle=1;rounded=0;labelBorderColor=none;" parent="UpbgRDfw7AcTngtZnHsZ-2" connectable="0" vertex="1">
          <mxGeometry x="1" relative="1" as="geometry">
            <mxPoint y="11" as="offset" />
          </mxGeometry>
        </mxCell>
        <mxCell id="UpbgRDfw7AcTngtZnHsZ-4" value="" style="endArrow=none;html=1;rounded=0;entryX=1;entryY=0.5;entryDx=0;entryDy=0;exitX=0;exitY=0.75;exitDx=0;exitDy=0;labelBackgroundColor=none;strokeColor=#454545;fontColor=#333333;fontSize=12;fillColor=#E6E6E6;labelBorderColor=none;fontStyle=1;" parent="1" source="g4oVjJQtsdM4NGJoOiEY-1" target="UpbgRDfw7AcTngtZnHsZ-1" edge="1">
          <mxGeometry relative="1" as="geometry">
            <mxPoint x="492" y="944" as="sourcePoint" />
            <mxPoint x="652" y="944" as="targetPoint" />
            <Array as="points">
              <mxPoint x="780" y="795" />
            </Array>
          </mxGeometry>
        </mxCell>
        <mxCell id="UpbgRDfw7AcTngtZnHsZ-5" value="1" style="resizable=0;html=1;whiteSpace=wrap;align=center;verticalAlign=middle;labelBackgroundColor=none;fillColor=#E6E6E6;strokeColor=#454545;fontColor=#333333;fontStyle=1;rounded=0;labelBorderColor=none;" parent="UpbgRDfw7AcTngtZnHsZ-4" connectable="0" vertex="1">
          <mxGeometry x="1" relative="1" as="geometry">
            <mxPoint y="12" as="offset" />
          </mxGeometry>
        </mxCell>
        <mxCell id="UpbgRDfw7AcTngtZnHsZ-6" value="&lt;b&gt;Post_Date&lt;/b&gt;" style="ellipse;whiteSpace=wrap;html=1;align=center;strokeColor=#454545;fontColor=#333333;fillColor=#E6E6E6;labelBackgroundColor=none;rounded=0;labelBorderColor=none;fontStyle=1;" parent="1" vertex="1">
          <mxGeometry x="707" y="1212" width="100" height="40" as="geometry" />
        </mxCell>
        <mxCell id="UpbgRDfw7AcTngtZnHsZ-7" value="" style="endArrow=none;html=1;rounded=0;strokeColor=#454545;exitX=0.945;exitY=0.999;exitDx=0;exitDy=0;entryX=0.815;entryY=0.092;entryDx=0;entryDy=0;labelBackgroundColor=none;fontColor=#333333;fontSize=12;fillColor=#E6E6E6;labelBorderColor=none;fontStyle=1;exitPerimeter=0;entryPerimeter=0;" parent="1" source="oE3xKzw1XIDrSMcUNoub-1" target="UpbgRDfw7AcTngtZnHsZ-6" edge="1">
          <mxGeometry relative="1" as="geometry">
            <mxPoint x="647" y="841" as="sourcePoint" />
            <mxPoint x="807" y="841" as="targetPoint" />
          </mxGeometry>
        </mxCell>
        <mxCell id="9pysv10yLaMaqysZBoLW-1" value="" style="endArrow=none;html=1;rounded=0;exitX=0.5;exitY=1;exitDx=0;exitDy=0;entryX=0.5;entryY=0;entryDx=0;entryDy=0;strokeColor=#454545;" parent="1" source="g4oVjJQtsdM4NGJoOiEY-106" target="g4oVjJQtsdM4NGJoOiEY-65" edge="1">
          <mxGeometry relative="1" as="geometry">
            <mxPoint x="1417" y="950" as="sourcePoint" />
            <mxPoint x="1577" y="950" as="targetPoint" />
          </mxGeometry>
        </mxCell>
        <mxCell id="9pysv10yLaMaqysZBoLW-2" value="" style="endArrow=none;html=1;rounded=0;exitX=0;exitY=0.5;exitDx=0;exitDy=0;entryX=1;entryY=0.5;entryDx=0;entryDy=0;strokeColor=#454545;" parent="1" source="g4oVjJQtsdM4NGJoOiEY-103" target="g4oVjJQtsdM4NGJoOiEY-106" edge="1">
          <mxGeometry relative="1" as="geometry">
            <mxPoint x="1345" y="918" as="sourcePoint" />
            <mxPoint x="1336" y="1071" as="targetPoint" />
          </mxGeometry>
        </mxCell>
        <mxCell id="9pysv10yLaMaqysZBoLW-3" value="" style="endArrow=none;html=1;rounded=0;exitX=0.5;exitY=1;exitDx=0;exitDy=0;entryX=0.5;entryY=0;entryDx=0;entryDy=0;strokeColor=#454545;" parent="1" source="g4oVjJQtsdM4NGJoOiEY-53" target="g4oVjJQtsdM4NGJoOiEY-106" edge="1">
          <mxGeometry relative="1" as="geometry">
            <mxPoint x="1355" y="928" as="sourcePoint" />
            <mxPoint x="1346" y="1081" as="targetPoint" />
          </mxGeometry>
        </mxCell>
        <mxCell id="9pysv10yLaMaqysZBoLW-6" value="" style="shape=link;html=1;rounded=0;entryX=0.5;entryY=1;entryDx=0;entryDy=0;exitX=1;exitY=0.5;exitDx=0;exitDy=0;labelBackgroundColor=none;fontSize=12;strokeColor=#454545;fontColor=#333333;labelBorderColor=none;fontStyle=1;fillColor=#E6E6E6;" parent="1" source="g4oVjJQtsdM4NGJoOiEY-53" target="r--STZxaHeFdET9zEWog-1" edge="1">
          <mxGeometry relative="1" as="geometry">
            <mxPoint x="1712" y="702" as="sourcePoint" />
            <mxPoint x="1629" y="583" as="targetPoint" />
            <Array as="points">
              <mxPoint x="1814" y="790" />
            </Array>
          </mxGeometry>
        </mxCell>
        <mxCell id="9pysv10yLaMaqysZBoLW-11" value="" style="shape=link;html=1;rounded=0;entryX=0.5;entryY=1;entryDx=0;entryDy=0;exitX=1;exitY=0.75;exitDx=0;exitDy=0;labelBackgroundColor=none;fontSize=12;strokeColor=#454545;fontColor=#333333;labelBorderColor=none;fontStyle=1;fillColor=#E6E6E6;" parent="1" source="g4oVjJQtsdM4NGJoOiEY-80" target="r--STZxaHeFdET9zEWog-1" edge="1">
          <mxGeometry relative="1" as="geometry">
            <mxPoint x="1067" y="1393" as="sourcePoint" />
            <mxPoint x="1634" y="993" as="targetPoint" />
            <Array as="points">
              <mxPoint x="1073" y="1093" />
              <mxPoint x="1073" y="1263" />
              <mxPoint x="1814" y="1257" />
            </Array>
          </mxGeometry>
        </mxCell>
        <mxCell id="9pysv10yLaMaqysZBoLW-14" value="" style="shape=link;html=1;rounded=0;entryX=0.5;entryY=1;entryDx=0;entryDy=0;exitX=1;exitY=0.75;exitDx=0;exitDy=0;labelBackgroundColor=none;fontSize=12;strokeColor=#454545;fontColor=#333333;labelBorderColor=none;fontStyle=1;fillColor=#E6E6E6;" parent="1" source="oE3xKzw1XIDrSMcUNoub-1" target="r--STZxaHeFdET9zEWog-1" edge="1">
          <mxGeometry relative="1" as="geometry">
            <mxPoint x="1199" y="1080" as="sourcePoint" />
            <mxPoint x="1359" y="1080" as="targetPoint" />
            <Array as="points">
              <mxPoint x="832" y="1092" />
              <mxPoint x="832" y="1310" />
              <mxPoint x="1814" y="1295" />
            </Array>
          </mxGeometry>
        </mxCell>
        <mxCell id="esjy3NtcW11agA_t-H4n-1" value="" style="endArrow=none;html=1;rounded=0;exitX=0.5;exitY=0;exitDx=0;exitDy=0;entryX=0.675;entryY=0.985;entryDx=0;entryDy=0;labelBackgroundColor=none;fontColor=#333333;labelBorderColor=none;fontSize=12;fontStyle=1;strokeColor=#454545;fillColor=#E6E6E6;entryPerimeter=0;" parent="1" source="g4oVjJQtsdM4NGJoOiEY-82" target="g4oVjJQtsdM4NGJoOiEY-80" edge="1">
          <mxGeometry relative="1" as="geometry">
            <mxPoint x="910" y="1203" as="sourcePoint" />
            <mxPoint x="944" y="1113" as="targetPoint" />
          </mxGeometry>
        </mxCell>
      </root>
    </mxGraphModel>
  </diagram>
</mxfile>
